<?xml version="1.0" encoding="UTF-8" standalone="no"?>
<!DOCTYPE svg PUBLIC "-//W3C//DTD SVG 1.1//EN"
 "http://www.w3.org/Graphics/SVG/1.1/DTD/svg11.dtd">
<!-- Generated by graphviz version 2.40.1 (20161225.0304)
 -->
<!-- Title: G Pages: 1 -->
<svg width="493pt" height="1910pt"
 viewBox="0.00 0.00 493.00 1910.00" xmlns="http://www.w3.org/2000/svg" xmlns:xlink="http://www.w3.org/1999/xlink">
<g id="graph0" class="graph" transform="scale(1 1) rotate(0) translate(4 1906)">
<title>G</title>
<polygon fill="#ffffff" stroke="transparent" points="-4,4 -4,-1906 489,-1906 489,4 -4,4"/>
<!-- Rithala -->
<g id="node1" class="node">
<title>Rithala</title>
<polygon fill="none" stroke="#000000" points="136.5,-1902 80.5,-1902 80.5,-1866 136.5,-1866 136.5,-1902"/>
<text text-anchor="middle" x="108.5" y="-1880.3" font-family="Times,serif" font-size="14.00" fill="#000000">Rithala</text>
</g>
<!-- Netaji Subhash Place -->
<g id="node2" class="node">
<title>Netaji Subhash Place</title>
<polygon fill="none" stroke="#000000" points="174.5,-1815 42.5,-1815 42.5,-1779 174.5,-1779 174.5,-1815"/>
<text text-anchor="middle" x="108.5" y="-1793.3" font-family="Times,serif" font-size="14.00" fill="#000000">Netaji Subhash Place</text>
</g>
<!-- Rithala&#45;&#45;Netaji Subhash Place -->
<g id="edge1" class="edge">
<title>Rithala&#45;&#45;Netaji Subhash Place</title>
<path fill="none" stroke="#ff0000" stroke-width="2" d="M108.5,-1865.9735C108.5,-1851.0422 108.5,-1829.9283 108.5,-1815.0034"/>
<text text-anchor="middle" x="117.5" y="-1836.8" font-family="Times,serif" font-size="14.00" fill="#000000">5.2</text>
</g>
<!-- Keshav Puram -->
<g id="node3" class="node">
<title>Keshav Puram</title>
<polygon fill="none" stroke="#000000" points="157,-1728 60,-1728 60,-1692 157,-1692 157,-1728"/>
<text text-anchor="middle" x="108.5" y="-1706.3" font-family="Times,serif" font-size="14.00" fill="#000000">Keshav Puram</text>
</g>
<!-- Netaji Subhash Place&#45;&#45;Keshav Puram -->
<g id="edge2" class="edge">
<title>Netaji Subhash Place&#45;&#45;Keshav Puram</title>
<path fill="none" stroke="#ff0000" stroke-width="2" d="M108.5,-1778.9735C108.5,-1764.0422 108.5,-1742.9283 108.5,-1728.0034"/>
<text text-anchor="middle" x="117.5" y="-1749.8" font-family="Times,serif" font-size="14.00" fill="#000000">1.2</text>
</g>
<!-- Kanhaiya Nagar -->
<g id="node4" class="node">
<title>Kanhaiya Nagar</title>
<polygon fill="none" stroke="#000000" points="161,-1641 56,-1641 56,-1605 161,-1605 161,-1641"/>
<text text-anchor="middle" x="108.5" y="-1619.3" font-family="Times,serif" font-size="14.00" fill="#000000">Kanhaiya Nagar</text>
</g>
<!-- Keshav Puram&#45;&#45;Kanhaiya Nagar -->
<g id="edge3" class="edge">
<title>Keshav Puram&#45;&#45;Kanhaiya Nagar</title>
<path fill="none" stroke="#ff0000" stroke-width="2" d="M108.5,-1691.9735C108.5,-1677.0422 108.5,-1655.9283 108.5,-1641.0034"/>
<text text-anchor="middle" x="117.5" y="-1662.8" font-family="Times,serif" font-size="14.00" fill="#000000">0.8</text>
</g>
<!-- Inderlok -->
<g id="node5" class="node">
<title>Inderlok</title>
<polygon fill="none" stroke="#000000" points="162.5,-1554 100.5,-1554 100.5,-1518 162.5,-1518 162.5,-1554"/>
<text text-anchor="middle" x="131.5" y="-1532.3" font-family="Times,serif" font-size="14.00" fill="#000000">Inderlok</text>
</g>
<!-- Kanhaiya Nagar&#45;&#45;Inderlok -->
<g id="edge4" class="edge">
<title>Kanhaiya Nagar&#45;&#45;Inderlok</title>
<path fill="none" stroke="#ff0000" stroke-width="2" d="M113.2656,-1604.9735C117.213,-1590.0422 122.7948,-1568.9283 126.7405,-1554.0034"/>
<text text-anchor="middle" x="130.5" y="-1575.8" font-family="Times,serif" font-size="14.00" fill="#000000">1.2</text>
</g>
<!-- Shastri Nagar -->
<g id="node6" class="node">
<title>Shastri Nagar</title>
<polygon fill="none" stroke="#000000" points="177,-1467 86,-1467 86,-1431 177,-1431 177,-1467"/>
<text text-anchor="middle" x="131.5" y="-1445.3" font-family="Times,serif" font-size="14.00" fill="#000000">Shastri Nagar</text>
</g>
<!-- Inderlok&#45;&#45;Shastri Nagar -->
<g id="edge5" class="edge">
<title>Inderlok&#45;&#45;Shastri Nagar</title>
<path fill="none" stroke="#ff0000" stroke-width="8" d="M131.5,-1517.9735C131.5,-1503.0422 131.5,-1481.9283 131.5,-1467.0034"/>
<text text-anchor="middle" x="140.5" y="-1488.8" font-family="Times,serif" font-size="14.00" fill="#000000">1.2</text>
</g>
<!-- Pratap Nagar -->
<g id="node7" class="node">
<title>Pratap Nagar</title>
<polygon fill="none" stroke="#000000" points="175.5,-1380 87.5,-1380 87.5,-1344 175.5,-1344 175.5,-1380"/>
<text text-anchor="middle" x="131.5" y="-1358.3" font-family="Times,serif" font-size="14.00" fill="#000000">Pratap Nagar</text>
</g>
<!-- Shastri Nagar&#45;&#45;Pratap Nagar -->
<g id="edge6" class="edge">
<title>Shastri Nagar&#45;&#45;Pratap Nagar</title>
<path fill="none" stroke="#ff0000" stroke-width="8" d="M131.5,-1430.9735C131.5,-1416.0422 131.5,-1394.9283 131.5,-1380.0034"/>
<text text-anchor="middle" x="140.5" y="-1401.8" font-family="Times,serif" font-size="14.00" fill="#000000">1.7</text>
</g>
<!-- Pulbangash -->
<g id="node8" class="node">
<title>Pulbangash</title>
<polygon fill="none" stroke="#000000" points="171,-1272 92,-1272 92,-1236 171,-1236 171,-1272"/>
<text text-anchor="middle" x="131.5" y="-1250.3" font-family="Times,serif" font-size="14.00" fill="#000000">Pulbangash</text>
</g>
<!-- Pratap Nagar&#45;&#45;Pulbangash -->
<g id="edge7" class="edge">
<title>Pratap Nagar&#45;&#45;Pulbangash</title>
<path fill="none" stroke="#ff0000" stroke-width="8" d="M131.5,-1343.6793C131.5,-1323.699 131.5,-1291.9231 131.5,-1272.0502"/>
<text text-anchor="middle" x="140.5" y="-1304.3" font-family="Times,serif" font-size="14.00" fill="#000000">0.8</text>
</g>
<!-- Tis Hazari -->
<g id="node9" class="node">
<title>Tis Hazari</title>
<polygon fill="none" stroke="#000000" points="169.5,-1164 95.5,-1164 95.5,-1128 169.5,-1128 169.5,-1164"/>
<text text-anchor="middle" x="132.5" y="-1142.3" font-family="Times,serif" font-size="14.00" fill="#000000">Tis Hazari</text>
</g>
<!-- Pulbangash&#45;&#45;Tis Hazari -->
<g id="edge8" class="edge">
<title>Pulbangash&#45;&#45;Tis Hazari</title>
<path fill="none" stroke="#ff0000" stroke-width="8" d="M131.6696,-1235.6793C131.8546,-1215.699 132.1489,-1183.9231 132.3329,-1164.0502"/>
<text text-anchor="middle" x="141.5" y="-1196.3" font-family="Times,serif" font-size="14.00" fill="#000000">0.9</text>
</g>
<!-- Kashmere Gate -->
<g id="node10" class="node">
<title>Kashmere Gate</title>
<polygon fill="none" stroke="#000000" points="187,-1056 86,-1056 86,-1020 187,-1020 187,-1056"/>
<text text-anchor="middle" x="136.5" y="-1034.3" font-family="Times,serif" font-size="14.00" fill="#000000">Kashmere Gate</text>
</g>
<!-- Tis Hazari&#45;&#45;Kashmere Gate -->
<g id="edge9" class="edge">
<title>Tis Hazari&#45;&#45;Kashmere Gate</title>
<path fill="none" stroke="#ff0000" stroke-width="8" d="M133.1785,-1127.6793C133.9186,-1107.699 135.0954,-1075.9231 135.8315,-1056.0502"/>
<text text-anchor="middle" x="144.5" y="-1088.3" font-family="Times,serif" font-size="14.00" fill="#000000">1.1</text>
</g>
<!-- Shastri Park -->
<g id="node11" class="node">
<title>Shastri Park</title>
<polygon fill="none" stroke="#000000" points="85,-948 2,-948 2,-912 85,-912 85,-948"/>
<text text-anchor="middle" x="43.5" y="-926.3" font-family="Times,serif" font-size="14.00" fill="#000000">Shastri Park</text>
</g>
<!-- Kashmere Gate&#45;&#45;Shastri Park -->
<g id="edge10" class="edge">
<title>Kashmere Gate&#45;&#45;Shastri Park</title>
<path fill="none" stroke="#ff0000" stroke-width="2" d="M120.7238,-1019.6793C103.5186,-999.699 76.156,-967.9231 59.0432,-948.0502"/>
<text text-anchor="middle" x="113.5" y="-980.3" font-family="Times,serif" font-size="14.00" fill="#000000">2.2</text>
</g>
<!-- Lal Qila -->
<g id="node33" class="node">
<title>Lal Qila</title>
<polygon fill="none" stroke="#000000" points="167.5,-948 105.5,-948 105.5,-912 167.5,-912 167.5,-948"/>
<text text-anchor="middle" x="136.5" y="-926.3" font-family="Times,serif" font-size="14.00" fill="#000000">Lal Qila</text>
</g>
<!-- Kashmere Gate&#45;&#45;Lal Qila -->
<g id="edge32" class="edge">
<title>Kashmere Gate&#45;&#45;Lal Qila</title>
<path fill="none" stroke="#00ff00" stroke-width="2" d="M136.5,-1019.6793C136.5,-999.699 136.5,-967.9231 136.5,-948.0502"/>
<text text-anchor="middle" x="145.5" y="-980.3" font-family="Times,serif" font-size="14.00" fill="#000000">1.5</text>
</g>
<!-- Chandni Chowk -->
<g id="node45" class="node">
<title>Chandni Chowk</title>
<polygon fill="none" stroke="#000000" points="293,-948 188,-948 188,-912 293,-912 293,-948"/>
<text text-anchor="middle" x="240.5" y="-926.3" font-family="Times,serif" font-size="14.00" fill="#000000">Chandni Chowk</text>
</g>
<!-- Kashmere Gate&#45;&#45;Chandni Chowk -->
<g id="edge45" class="edge">
<title>Kashmere Gate&#45;&#45;Chandni Chowk</title>
<path fill="none" stroke="#ffff00" stroke-width="8" d="M154.1422,-1019.6793C173.3824,-999.699 203.9814,-967.9231 223.1184,-948.0502"/>
<text text-anchor="middle" x="213.5" y="-980.3" font-family="Times,serif" font-size="14.00" fill="#000000">1.1</text>
</g>
<!-- Seelampur -->
<g id="node12" class="node">
<title>Seelampur</title>
<polygon fill="none" stroke="#000000" points="75,-861 0,-861 0,-825 75,-825 75,-861"/>
<text text-anchor="middle" x="37.5" y="-839.3" font-family="Times,serif" font-size="14.00" fill="#000000">Seelampur</text>
</g>
<!-- Shastri Park&#45;&#45;Seelampur -->
<g id="edge11" class="edge">
<title>Shastri Park&#45;&#45;Seelampur</title>
<path fill="none" stroke="#ff0000" stroke-width="2" d="M42.2568,-911.9735C41.227,-897.0422 39.7709,-875.9283 38.7416,-861.0034"/>
<text text-anchor="middle" x="50.5" y="-882.8" font-family="Times,serif" font-size="14.00" fill="#000000">1.6</text>
</g>
<!-- Welcome -->
<g id="node13" class="node">
<title>Welcome</title>
<polygon fill="none" stroke="#000000" points="72.5,-774 2.5,-774 2.5,-738 72.5,-738 72.5,-774"/>
<text text-anchor="middle" x="37.5" y="-752.3" font-family="Times,serif" font-size="14.00" fill="#000000">Welcome</text>
</g>
<!-- Seelampur&#45;&#45;Welcome -->
<g id="edge12" class="edge">
<title>Seelampur&#45;&#45;Welcome</title>
<path fill="none" stroke="#ff0000" stroke-width="2" d="M37.5,-824.9735C37.5,-810.0422 37.5,-788.9283 37.5,-774.0034"/>
<text text-anchor="middle" x="46.5" y="-795.8" font-family="Times,serif" font-size="14.00" fill="#000000">1.1</text>
</g>
<!-- Rajouri Garden -->
<g id="node14" class="node">
<title>Rajouri Garden</title>
<polygon fill="none" stroke="#000000" points="279,-1728 178,-1728 178,-1692 279,-1692 279,-1728"/>
<text text-anchor="middle" x="228.5" y="-1706.3" font-family="Times,serif" font-size="14.00" fill="#000000">Rajouri Garden</text>
</g>
<!-- Ramesh Nagar -->
<g id="node15" class="node">
<title>Ramesh Nagar</title>
<polygon fill="none" stroke="#000000" points="277.5,-1641 179.5,-1641 179.5,-1605 277.5,-1605 277.5,-1641"/>
<text text-anchor="middle" x="228.5" y="-1619.3" font-family="Times,serif" font-size="14.00" fill="#000000">Ramesh Nagar</text>
</g>
<!-- Rajouri Garden&#45;&#45;Ramesh Nagar -->
<g id="edge13" class="edge">
<title>Rajouri Garden&#45;&#45;Ramesh Nagar</title>
<path fill="none" stroke="#0000ff" stroke-width="2" d="M228.5,-1691.9735C228.5,-1677.0422 228.5,-1655.9283 228.5,-1641.0034"/>
<text text-anchor="middle" x="232" y="-1662.8" font-family="Times,serif" font-size="14.00" fill="#000000">1</text>
</g>
<!-- Moti Nagar -->
<g id="node16" class="node">
<title>Moti Nagar</title>
<polygon fill="none" stroke="#000000" points="262.5,-1554 182.5,-1554 182.5,-1518 262.5,-1518 262.5,-1554"/>
<text text-anchor="middle" x="222.5" y="-1532.3" font-family="Times,serif" font-size="14.00" fill="#000000">Moti Nagar</text>
</g>
<!-- Ramesh Nagar&#45;&#45;Moti Nagar -->
<g id="edge14" class="edge">
<title>Ramesh Nagar&#45;&#45;Moti Nagar</title>
<path fill="none" stroke="#0000ff" stroke-width="2" d="M227.2568,-1604.9735C226.227,-1590.0422 224.7709,-1568.9283 223.7416,-1554.0034"/>
<text text-anchor="middle" x="235.5" y="-1575.8" font-family="Times,serif" font-size="14.00" fill="#000000">1.2</text>
</g>
<!-- Kirti Nagar -->
<g id="node17" class="node">
<title>Kirti Nagar</title>
<polygon fill="none" stroke="#000000" points="366,-1467 287,-1467 287,-1431 366,-1431 366,-1467"/>
<text text-anchor="middle" x="326.5" y="-1445.3" font-family="Times,serif" font-size="14.00" fill="#000000">Kirti Nagar</text>
</g>
<!-- Moti Nagar&#45;&#45;Kirti Nagar -->
<g id="edge15" class="edge">
<title>Moti Nagar&#45;&#45;Kirti Nagar</title>
<path fill="none" stroke="#0000ff" stroke-width="2" d="M244.0489,-1517.9735C261.8978,-1503.0422 287.1374,-1481.9283 304.9787,-1467.0034"/>
<text text-anchor="middle" x="284" y="-1488.8" font-family="Times,serif" font-size="14.00" fill="#000000">1</text>
</g>
<!-- Shadipur -->
<g id="node18" class="node">
<title>Shadipur</title>
<polygon fill="none" stroke="#000000" points="359,-1326 294,-1326 294,-1290 359,-1290 359,-1326"/>
<text text-anchor="middle" x="326.5" y="-1304.3" font-family="Times,serif" font-size="14.00" fill="#000000">Shadipur</text>
</g>
<!-- Kirti Nagar&#45;&#45;Shadipur -->
<g id="edge16" class="edge">
<title>Kirti Nagar&#45;&#45;Shadipur</title>
<path fill="none" stroke="#0000ff" stroke-width="2" d="M326.5,-1430.8554C326.5,-1403.7816 326.5,-1353.1083 326.5,-1326.075"/>
<text text-anchor="middle" x="335.5" y="-1401.8" font-family="Times,serif" font-size="14.00" fill="#000000">0.7</text>
</g>
<!-- Patel Nagar -->
<g id="node19" class="node">
<title>Patel Nagar</title>
<polygon fill="none" stroke="#000000" points="366.5,-1218 286.5,-1218 286.5,-1182 366.5,-1182 366.5,-1218"/>
<text text-anchor="middle" x="326.5" y="-1196.3" font-family="Times,serif" font-size="14.00" fill="#000000">Patel Nagar</text>
</g>
<!-- Shadipur&#45;&#45;Patel Nagar -->
<g id="edge17" class="edge">
<title>Shadipur&#45;&#45;Patel Nagar</title>
<path fill="none" stroke="#0000ff" stroke-width="2" d="M326.5,-1289.6793C326.5,-1269.699 326.5,-1237.9231 326.5,-1218.0502"/>
<text text-anchor="middle" x="335.5" y="-1250.3" font-family="Times,serif" font-size="14.00" fill="#000000">1.3</text>
</g>
<!-- Rajender Place -->
<g id="node20" class="node">
<title>Rajender Place</title>
<polygon fill="none" stroke="#000000" points="375.5,-1110 277.5,-1110 277.5,-1074 375.5,-1074 375.5,-1110"/>
<text text-anchor="middle" x="326.5" y="-1088.3" font-family="Times,serif" font-size="14.00" fill="#000000">Rajender Place</text>
</g>
<!-- Patel Nagar&#45;&#45;Rajender Place -->
<g id="edge18" class="edge">
<title>Patel Nagar&#45;&#45;Rajender Place</title>
<path fill="none" stroke="#0000ff" stroke-width="2" d="M326.5,-1181.6793C326.5,-1161.699 326.5,-1129.9231 326.5,-1110.0502"/>
<text text-anchor="middle" x="335.5" y="-1142.3" font-family="Times,serif" font-size="14.00" fill="#000000">0.9</text>
</g>
<!-- Karol Bagh -->
<g id="node21" class="node">
<title>Karol Bagh</title>
<polygon fill="none" stroke="#000000" points="366.5,-1002 286.5,-1002 286.5,-966 366.5,-966 366.5,-1002"/>
<text text-anchor="middle" x="326.5" y="-980.3" font-family="Times,serif" font-size="14.00" fill="#000000">Karol Bagh</text>
</g>
<!-- Rajender Place&#45;&#45;Karol Bagh -->
<g id="edge19" class="edge">
<title>Rajender Place&#45;&#45;Karol Bagh</title>
<path fill="none" stroke="#0000ff" stroke-width="2" d="M326.5,-1073.6793C326.5,-1053.699 326.5,-1021.9231 326.5,-1002.0502"/>
<text text-anchor="middle" x="330" y="-1034.3" font-family="Times,serif" font-size="14.00" fill="#000000">1</text>
</g>
<!-- Rajiv Chowk -->
<g id="node22" class="node">
<title>Rajiv Chowk</title>
<polygon fill="none" stroke="#000000" points="330,-687 241,-687 241,-651 330,-651 330,-687"/>
<text text-anchor="middle" x="285.5" y="-665.3" font-family="Times,serif" font-size="14.00" fill="#000000">Rajiv Chowk</text>
</g>
<!-- Karol Bagh&#45;&#45;Rajiv Chowk -->
<g id="edge20" class="edge">
<title>Karol Bagh&#45;&#45;Rajiv Chowk</title>
<path fill="none" stroke="#0000ff" stroke-width="2" d="M326.5,-965.6707C326.5,-946.0742 326.5,-914.0911 326.5,-886.5 326.5,-886.5 326.5,-886.5 326.5,-756 326.5,-730.286 311.663,-704.0258 299.8398,-687.1819"/>
<text text-anchor="middle" x="335.5" y="-839.3" font-family="Times,serif" font-size="14.00" fill="#000000">3.4</text>
</g>
<!-- Barakhamba Road -->
<g id="node23" class="node">
<title>Barakhamba Road</title>
<polygon fill="none" stroke="#000000" points="290.5,-579 172.5,-579 172.5,-543 290.5,-543 290.5,-579"/>
<text text-anchor="middle" x="231.5" y="-557.3" font-family="Times,serif" font-size="14.00" fill="#000000">Barakhamba Road</text>
</g>
<!-- Rajiv Chowk&#45;&#45;Barakhamba Road -->
<g id="edge21" class="edge">
<title>Rajiv Chowk&#45;&#45;Barakhamba Road</title>
<path fill="none" stroke="#0000ff" stroke-width="2" d="M276.3396,-650.6793C266.3495,-630.699 250.4616,-598.9231 240.5251,-579.0502"/>
<text text-anchor="middle" x="274.5" y="-611.3" font-family="Times,serif" font-size="14.00" fill="#000000">0.7</text>
</g>
<!-- Patel Chowk -->
<g id="node48" class="node">
<title>Patel Chowk</title>
<polygon fill="none" stroke="#000000" points="361.5,-525 275.5,-525 275.5,-489 361.5,-489 361.5,-525"/>
<text text-anchor="middle" x="318.5" y="-503.3" font-family="Times,serif" font-size="14.00" fill="#000000">Patel Chowk</text>
</g>
<!-- Rajiv Chowk&#45;&#45;Patel Chowk -->
<g id="edge49" class="edge">
<title>Rajiv Chowk&#45;&#45;Patel Chowk</title>
<path fill="none" stroke="#ffff00" stroke-width="2" d="M289.2214,-650.7314C295.5593,-619.6181 308.3785,-556.6872 314.7416,-525.4503"/>
<text text-anchor="middle" x="308.5" y="-611.3" font-family="Times,serif" font-size="14.00" fill="#000000">1.3</text>
</g>
<!-- Mandi House -->
<g id="node24" class="node">
<title>Mandi House</title>
<polygon fill="none" stroke="#000000" points="257,-471 166,-471 166,-435 257,-435 257,-471"/>
<text text-anchor="middle" x="211.5" y="-449.3" font-family="Times,serif" font-size="14.00" fill="#000000">Mandi House</text>
</g>
<!-- Barakhamba Road&#45;&#45;Mandi House -->
<g id="edge22" class="edge">
<title>Barakhamba Road&#45;&#45;Mandi House</title>
<path fill="none" stroke="#0000ff" stroke-width="2" d="M228.1073,-542.6793C224.4072,-522.699 218.5228,-490.9231 214.8426,-471.0502"/>
<text text-anchor="middle" x="228" y="-503.3" font-family="Times,serif" font-size="14.00" fill="#000000">1</text>
</g>
<!-- Pragati Maiden -->
<g id="node25" class="node">
<title>Pragati Maiden</title>
<polygon fill="none" stroke="#000000" points="214,-384 113,-384 113,-348 214,-348 214,-384"/>
<text text-anchor="middle" x="163.5" y="-362.3" font-family="Times,serif" font-size="14.00" fill="#000000">Pragati Maiden</text>
</g>
<!-- Mandi House&#45;&#45;Pragati Maiden -->
<g id="edge23" class="edge">
<title>Mandi House&#45;&#45;Pragati Maiden</title>
<path fill="none" stroke="#0000ff" stroke-width="2" d="M201.5544,-434.9735C193.3164,-420.0422 181.6674,-398.9283 173.4329,-384.0034"/>
<text text-anchor="middle" x="199.5" y="-405.8" font-family="Times,serif" font-size="14.00" fill="#000000">0.8</text>
</g>
<!-- Janptah -->
<g id="node37" class="node">
<title>Janptah</title>
<polygon fill="none" stroke="#000000" points="290.5,-384 232.5,-384 232.5,-348 290.5,-348 290.5,-384"/>
<text text-anchor="middle" x="261.5" y="-362.3" font-family="Times,serif" font-size="14.00" fill="#000000">Janptah</text>
</g>
<!-- Mandi House&#45;&#45;Janptah -->
<g id="edge37" class="edge">
<title>Mandi House&#45;&#45;Janptah</title>
<path fill="none" stroke="#00ff00" stroke-width="2" d="M221.86,-434.9735C230.4413,-420.0422 242.5757,-398.9283 251.1532,-384.0034"/>
<text text-anchor="middle" x="248.5" y="-405.8" font-family="Times,serif" font-size="14.00" fill="#000000">1.4</text>
</g>
<!-- Inderprastha -->
<g id="node26" class="node">
<title>Inderprastha</title>
<polygon fill="none" stroke="#000000" points="205.5,-297 121.5,-297 121.5,-261 205.5,-261 205.5,-297"/>
<text text-anchor="middle" x="163.5" y="-275.3" font-family="Times,serif" font-size="14.00" fill="#000000">Inderprastha</text>
</g>
<!-- Pragati Maiden&#45;&#45;Inderprastha -->
<g id="edge24" class="edge">
<title>Pragati Maiden&#45;&#45;Inderprastha</title>
<path fill="none" stroke="#0000ff" stroke-width="2" d="M163.5,-347.9735C163.5,-333.0422 163.5,-311.9283 163.5,-297.0034"/>
<text text-anchor="middle" x="172.5" y="-318.8" font-family="Times,serif" font-size="14.00" fill="#000000">0.8</text>
</g>
<!-- Yamuna Bank -->
<g id="node27" class="node">
<title>Yamuna Bank</title>
<polygon fill="none" stroke="#000000" points="211,-210 116,-210 116,-174 211,-174 211,-210"/>
<text text-anchor="middle" x="163.5" y="-188.3" font-family="Times,serif" font-size="14.00" fill="#000000">Yamuna Bank</text>
</g>
<!-- Inderprastha&#45;&#45;Yamuna Bank -->
<g id="edge25" class="edge">
<title>Inderprastha&#45;&#45;Yamuna Bank</title>
<path fill="none" stroke="#0000ff" stroke-width="2" d="M163.5,-260.9735C163.5,-246.0422 163.5,-224.9283 163.5,-210.0034"/>
<text text-anchor="middle" x="172.5" y="-231.8" font-family="Times,serif" font-size="14.00" fill="#000000">1.8</text>
</g>
<!-- Madipur -->
<g id="node28" class="node">
<title>Madipur</title>
<polygon fill="none" stroke="#000000" points="389.5,-1902 325.5,-1902 325.5,-1866 389.5,-1866 389.5,-1902"/>
<text text-anchor="middle" x="357.5" y="-1880.3" font-family="Times,serif" font-size="14.00" fill="#000000">Madipur</text>
</g>
<!-- Shivaji Park -->
<g id="node29" class="node">
<title>Shivaji Park</title>
<polygon fill="none" stroke="#000000" points="399,-1815 316,-1815 316,-1779 399,-1779 399,-1815"/>
<text text-anchor="middle" x="357.5" y="-1793.3" font-family="Times,serif" font-size="14.00" fill="#000000">Shivaji Park</text>
</g>
<!-- Madipur&#45;&#45;Shivaji Park -->
<g id="edge26" class="edge">
<title>Madipur&#45;&#45;Shivaji Park</title>
<path fill="none" stroke="#00ff00" stroke-width="2" d="M357.5,-1865.9735C357.5,-1851.0422 357.5,-1829.9283 357.5,-1815.0034"/>
<text text-anchor="middle" x="366.5" y="-1836.8" font-family="Times,serif" font-size="14.00" fill="#000000">1.1</text>
</g>
<!-- Punjabi Bagh -->
<g id="node30" class="node">
<title>Punjabi Bagh</title>
<polygon fill="none" stroke="#000000" points="402.5,-1728 312.5,-1728 312.5,-1692 402.5,-1692 402.5,-1728"/>
<text text-anchor="middle" x="357.5" y="-1706.3" font-family="Times,serif" font-size="14.00" fill="#000000">Punjabi Bagh</text>
</g>
<!-- Shivaji Park&#45;&#45;Punjabi Bagh -->
<g id="edge27" class="edge">
<title>Shivaji Park&#45;&#45;Punjabi Bagh</title>
<path fill="none" stroke="#00ff00" stroke-width="2" d="M357.5,-1778.9735C357.5,-1764.0422 357.5,-1742.9283 357.5,-1728.0034"/>
<text text-anchor="middle" x="366.5" y="-1749.8" font-family="Times,serif" font-size="14.00" fill="#000000">1.6</text>
</g>
<!-- Ashok Park -->
<g id="node31" class="node">
<title>Ashok Park</title>
<polygon fill="none" stroke="#000000" points="397.5,-1641 317.5,-1641 317.5,-1605 397.5,-1605 397.5,-1641"/>
<text text-anchor="middle" x="357.5" y="-1619.3" font-family="Times,serif" font-size="14.00" fill="#000000">Ashok Park</text>
</g>
<!-- Punjabi Bagh&#45;&#45;Ashok Park -->
<g id="edge28" class="edge">
<title>Punjabi Bagh&#45;&#45;Ashok Park</title>
<path fill="none" stroke="#00ff00" stroke-width="2" d="M357.5,-1691.9735C357.5,-1677.0422 357.5,-1655.9283 357.5,-1641.0034"/>
<text text-anchor="middle" x="366.5" y="-1662.8" font-family="Times,serif" font-size="14.00" fill="#000000">0.9</text>
</g>
<!-- Ashok Park&#45;&#45;Inderlok -->
<g id="edge29" class="edge">
<title>Ashok Park&#45;&#45;Inderlok</title>
<path fill="none" stroke="#00ff00" stroke-width="2" d="M323.3932,-1604.8617C302.2703,-1594.182 274.3335,-1581.0392 248.5,-1572 216.1437,-1560.6784 206.0373,-1564.7904 173.5,-1554 170.0363,-1552.8513 166.4613,-1551.5343 162.9268,-1550.1464"/>
<text text-anchor="middle" x="293.5" y="-1575.8" font-family="Times,serif" font-size="14.00" fill="#000000">1.4</text>
</g>
<!-- Sant Guru Ram Singh Marg -->
<g id="node32" class="node">
<title>Sant Guru Ram Singh Marg</title>
<polygon fill="none" stroke="#000000" points="452,-1554 281,-1554 281,-1518 452,-1518 452,-1554"/>
<text text-anchor="middle" x="366.5" y="-1532.3" font-family="Times,serif" font-size="14.00" fill="#000000">Sant Guru Ram Singh Marg</text>
</g>
<!-- Ashok Park&#45;&#45;Sant Guru Ram Singh Marg -->
<g id="edge30" class="edge">
<title>Ashok Park&#45;&#45;Sant Guru Ram Singh Marg</title>
<path fill="none" stroke="#00ff00" stroke-width="2" d="M359.3648,-1604.9735C360.9094,-1590.0422 363.0936,-1568.9283 364.6376,-1554.0034"/>
<text text-anchor="middle" x="371.5" y="-1575.8" font-family="Times,serif" font-size="14.00" fill="#000000">1.1</text>
</g>
<!-- Sant Guru Ram Singh Marg&#45;&#45;Kirti Nagar -->
<g id="edge31" class="edge">
<title>Sant Guru Ram Singh Marg&#45;&#45;Kirti Nagar</title>
<path fill="none" stroke="#00ff00" stroke-width="2" d="M358.212,-1517.9735C351.347,-1503.0422 341.6395,-1481.9283 334.7774,-1467.0034"/>
<text text-anchor="middle" x="352" y="-1488.8" font-family="Times,serif" font-size="14.00" fill="#000000">1</text>
</g>
<!-- Jama Masjid -->
<g id="node34" class="node">
<title>Jama Masjid</title>
<polygon fill="none" stroke="#000000" points="180,-861 93,-861 93,-825 180,-825 180,-861"/>
<text text-anchor="middle" x="136.5" y="-839.3" font-family="Times,serif" font-size="14.00" fill="#000000">Jama Masjid</text>
</g>
<!-- Lal Qila&#45;&#45;Jama Masjid -->
<g id="edge33" class="edge">
<title>Lal Qila&#45;&#45;Jama Masjid</title>
<path fill="none" stroke="#00ff00" stroke-width="2" d="M136.5,-911.9735C136.5,-897.0422 136.5,-875.9283 136.5,-861.0034"/>
<text text-anchor="middle" x="145.5" y="-882.8" font-family="Times,serif" font-size="14.00" fill="#000000">0.8</text>
</g>
<!-- Delhi Gate -->
<g id="node35" class="node">
<title>Delhi Gate</title>
<polygon fill="none" stroke="#000000" points="174.5,-774 98.5,-774 98.5,-738 174.5,-738 174.5,-774"/>
<text text-anchor="middle" x="136.5" y="-752.3" font-family="Times,serif" font-size="14.00" fill="#000000">Delhi Gate</text>
</g>
<!-- Jama Masjid&#45;&#45;Delhi Gate -->
<g id="edge34" class="edge">
<title>Jama Masjid&#45;&#45;Delhi Gate</title>
<path fill="none" stroke="#00ff00" stroke-width="2" d="M136.5,-824.9735C136.5,-810.0422 136.5,-788.9283 136.5,-774.0034"/>
<text text-anchor="middle" x="145.5" y="-795.8" font-family="Times,serif" font-size="14.00" fill="#000000">1.4</text>
</g>
<!-- ITO -->
<g id="node36" class="node">
<title>ITO</title>
<polygon fill="none" stroke="#000000" points="163.5,-633 109.5,-633 109.5,-597 163.5,-597 163.5,-633"/>
<text text-anchor="middle" x="136.5" y="-611.3" font-family="Times,serif" font-size="14.00" fill="#000000">ITO</text>
</g>
<!-- Delhi Gate&#45;&#45;ITO -->
<g id="edge35" class="edge">
<title>Delhi Gate&#45;&#45;ITO</title>
<path fill="none" stroke="#00ff00" stroke-width="2" d="M136.5,-737.8554C136.5,-710.7816 136.5,-660.1083 136.5,-633.075"/>
<text text-anchor="middle" x="145.5" y="-708.8" font-family="Times,serif" font-size="14.00" fill="#000000">1.3</text>
</g>
<!-- ITO&#45;&#45;Mandi House -->
<g id="edge36" class="edge">
<title>ITO&#45;&#45;Mandi House</title>
<path fill="none" stroke="#00ff00" stroke-width="2" d="M136.2669,-596.9206C136.6523,-581.9704 138.5631,-560.441 145.5,-543 156.5278,-515.2734 178.1717,-488.3364 193.6685,-471.2726"/>
<text text-anchor="middle" x="154.5" y="-557.3" font-family="Times,serif" font-size="14.00" fill="#000000">0.8</text>
</g>
<!-- Central Secretariat -->
<g id="node38" class="node">
<title>Central Secretariat</title>
<polygon fill="none" stroke="#000000" points="367.5,-297 249.5,-297 249.5,-261 367.5,-261 367.5,-297"/>
<text text-anchor="middle" x="308.5" y="-275.3" font-family="Times,serif" font-size="14.00" fill="#000000">Central Secretariat</text>
</g>
<!-- Janptah&#45;&#45;Central Secretariat -->
<g id="edge38" class="edge">
<title>Janptah&#45;&#45;Central Secretariat</title>
<path fill="none" stroke="#00ff00" stroke-width="2" d="M269.8916,-347.8537C274.5653,-338.0183 280.6147,-325.7178 286.5,-315 289.7435,-309.0932 293.497,-302.7826 296.9751,-297.1211"/>
<text text-anchor="middle" x="295.5" y="-318.8" font-family="Times,serif" font-size="14.00" fill="#000000">1.3</text>
</g>
<!-- Khan Market -->
<g id="node39" class="node">
<title>Khan Market</title>
<polygon fill="none" stroke="#000000" points="466,-210 377,-210 377,-174 466,-174 466,-210"/>
<text text-anchor="middle" x="421.5" y="-188.3" font-family="Times,serif" font-size="14.00" fill="#000000">Khan Market</text>
</g>
<!-- Central Secretariat&#45;&#45;Khan Market -->
<g id="edge39" class="edge">
<title>Central Secretariat&#45;&#45;Khan Market</title>
<path fill="none" stroke="#00ff00" stroke-width="2" d="M331.9137,-260.9735C351.3073,-246.0422 378.731,-224.9283 398.1163,-210.0034"/>
<text text-anchor="middle" x="380.5" y="-231.8" font-family="Times,serif" font-size="14.00" fill="#000000">2.1</text>
</g>
<!-- Udyog Bhawan -->
<g id="node49" class="node">
<title>Udyog Bhawan</title>
<polygon fill="none" stroke="#000000" points="349,-210 248,-210 248,-174 349,-174 349,-210"/>
<text text-anchor="middle" x="298.5" y="-188.3" font-family="Times,serif" font-size="14.00" fill="#000000">Udyog Bhawan</text>
</g>
<!-- Central Secretariat&#45;&#45;Udyog Bhawan -->
<g id="edge51" class="edge">
<title>Central Secretariat&#45;&#45;Udyog Bhawan</title>
<path fill="none" stroke="#ffff00" stroke-width="2" d="M306.428,-260.9735C304.7117,-246.0422 302.2849,-224.9283 300.5694,-210.0034"/>
<text text-anchor="middle" x="312.5" y="-231.8" font-family="Times,serif" font-size="14.00" fill="#000000">0.3</text>
</g>
<!-- JL Nehru Stadium -->
<g id="node40" class="node">
<title>JL Nehru Stadium</title>
<polygon fill="none" stroke="#000000" points="485,-123 368,-123 368,-87 485,-87 485,-123"/>
<text text-anchor="middle" x="426.5" y="-101.3" font-family="Times,serif" font-size="14.00" fill="#000000">JL Nehru Stadium</text>
</g>
<!-- Khan Market&#45;&#45;JL Nehru Stadium -->
<g id="edge40" class="edge">
<title>Khan Market&#45;&#45;JL Nehru Stadium</title>
<path fill="none" stroke="#00ff00" stroke-width="2" d="M422.536,-173.9735C423.3941,-159.0422 424.6076,-137.9283 425.4653,-123.0034"/>
<text text-anchor="middle" x="432.5" y="-144.8" font-family="Times,serif" font-size="14.00" fill="#000000">1.4</text>
</g>
<!-- Jangpura -->
<g id="node41" class="node">
<title>Jangpura</title>
<polygon fill="none" stroke="#000000" points="459,-36 394,-36 394,0 459,0 459,-36"/>
<text text-anchor="middle" x="426.5" y="-14.3" font-family="Times,serif" font-size="14.00" fill="#000000">Jangpura</text>
</g>
<!-- JL Nehru Stadium&#45;&#45;Jangpura -->
<g id="edge41" class="edge">
<title>JL Nehru Stadium&#45;&#45;Jangpura</title>
<path fill="none" stroke="#00ff00" stroke-width="2" d="M426.5,-86.9735C426.5,-72.0422 426.5,-50.9283 426.5,-36.0034"/>
<text text-anchor="middle" x="435.5" y="-57.8" font-family="Times,serif" font-size="14.00" fill="#000000">0.9</text>
</g>
<!-- Vishwavidalaya -->
<g id="node42" class="node">
<title>Vishwavidalaya</title>
<polygon fill="none" stroke="#000000" points="297.5,-1380 193.5,-1380 193.5,-1344 297.5,-1344 297.5,-1380"/>
<text text-anchor="middle" x="245.5" y="-1358.3" font-family="Times,serif" font-size="14.00" fill="#000000">Vishwavidalaya</text>
</g>
<!-- Vidhan Sabha -->
<g id="node43" class="node">
<title>Vidhan Sabha</title>
<polygon fill="none" stroke="#000000" points="286,-1272 193,-1272 193,-1236 286,-1236 286,-1272"/>
<text text-anchor="middle" x="239.5" y="-1250.3" font-family="Times,serif" font-size="14.00" fill="#000000">Vidhan Sabha</text>
</g>
<!-- Vishwavidalaya&#45;&#45;Vidhan Sabha -->
<g id="edge42" class="edge">
<title>Vishwavidalaya&#45;&#45;Vidhan Sabha</title>
<path fill="none" stroke="#ffff00" stroke-width="2" d="M244.4822,-1343.6793C243.3722,-1323.699 241.6068,-1291.9231 240.5028,-1272.0502"/>
<text text-anchor="middle" x="247" y="-1304.3" font-family="Times,serif" font-size="14.00" fill="#000000">1</text>
</g>
<!-- Civil Lines -->
<g id="node44" class="node">
<title>Civil Lines</title>
<polygon fill="none" stroke="#000000" points="269,-1164 192,-1164 192,-1128 269,-1128 269,-1164"/>
<text text-anchor="middle" x="230.5" y="-1142.3" font-family="Times,serif" font-size="14.00" fill="#000000">Civil Lines</text>
</g>
<!-- Vidhan Sabha&#45;&#45;Civil Lines -->
<g id="edge43" class="edge">
<title>Vidhan Sabha&#45;&#45;Civil Lines</title>
<path fill="none" stroke="#ffff00" stroke-width="2" d="M237.9733,-1235.6793C236.3083,-1215.699 233.6603,-1183.9231 232.0042,-1164.0502"/>
<text text-anchor="middle" x="245.5" y="-1196.3" font-family="Times,serif" font-size="14.00" fill="#000000">1.3</text>
</g>
<!-- Civil Lines&#45;&#45;Kashmere Gate -->
<g id="edge44" class="edge">
<title>Civil Lines&#45;&#45;Kashmere Gate</title>
<path fill="none" stroke="#ffff00" stroke-width="2" d="M214.5542,-1127.6793C197.164,-1107.699 169.5072,-1075.9231 152.2103,-1056.0502"/>
<text text-anchor="middle" x="206.5" y="-1088.3" font-family="Times,serif" font-size="14.00" fill="#000000">1.1</text>
</g>
<!-- Chawri Bazar -->
<g id="node46" class="node">
<title>Chawri Bazar</title>
<polygon fill="none" stroke="#000000" points="290.5,-861 198.5,-861 198.5,-825 290.5,-825 290.5,-861"/>
<text text-anchor="middle" x="244.5" y="-839.3" font-family="Times,serif" font-size="14.00" fill="#000000">Chawri Bazar</text>
</g>
<!-- Chandni Chowk&#45;&#45;Chawri Bazar -->
<g id="edge46" class="edge">
<title>Chandni Chowk&#45;&#45;Chawri Bazar</title>
<path fill="none" stroke="#ffff00" stroke-width="8" d="M241.3288,-911.9735C242.0153,-897.0422 242.9861,-875.9283 243.6723,-861.0034"/>
<text text-anchor="middle" x="247" y="-882.8" font-family="Times,serif" font-size="14.00" fill="#000000">1</text>
</g>
<!-- New Delhi -->
<g id="node47" class="node">
<title>New Delhi</title>
<polygon fill="none" stroke="#000000" points="294.5,-774 218.5,-774 218.5,-738 294.5,-738 294.5,-774"/>
<text text-anchor="middle" x="256.5" y="-752.3" font-family="Times,serif" font-size="14.00" fill="#000000">New Delhi</text>
</g>
<!-- Chawri Bazar&#45;&#45;New Delhi -->
<g id="edge47" class="edge">
<title>Chawri Bazar&#45;&#45;New Delhi</title>
<path fill="none" stroke="#ffff00" stroke-width="8" d="M246.9864,-824.9735C249.0459,-810.0422 251.9582,-788.9283 254.0168,-774.0034"/>
<text text-anchor="middle" x="259.5" y="-795.8" font-family="Times,serif" font-size="14.00" fill="#000000">0.8</text>
</g>
<!-- New Delhi&#45;&#45;Rajiv Chowk -->
<g id="edge48" class="edge">
<title>New Delhi&#45;&#45;Rajiv Chowk</title>
<path fill="none" stroke="#ffff00" stroke-width="2" d="M262.5088,-737.9735C267.4859,-723.0422 274.5239,-701.9283 279.4989,-687.0034"/>
<text text-anchor="middle" x="281.5" y="-708.8" font-family="Times,serif" font-size="14.00" fill="#000000">1.1</text>
</g>
<!-- Patel Chowk&#45;&#45;Central Secretariat -->
<g id="edge50" class="edge">
<title>Patel Chowk&#45;&#45;Central Secretariat</title>
<path fill="none" stroke="#ffff00" stroke-width="2" d="M317.6986,-488.7272C315.8215,-445.9305 311.1584,-339.612 309.2914,-297.0433"/>
<text text-anchor="middle" x="322.5" y="-405.8" font-family="Times,serif" font-size="14.00" fill="#000000">0.9</text>
</g>
<!-- Lok Kalyan Marg -->
<g id="node50" class="node">
<title>Lok Kalyan Marg</title>
<polygon fill="none" stroke="#000000" points="350,-123 235,-123 235,-87 350,-87 350,-123"/>
<text text-anchor="middle" x="292.5" y="-101.3" font-family="Times,serif" font-size="14.00" fill="#000000">Lok Kalyan Marg</text>
</g>
<!-- Udyog Bhawan&#45;&#45;Lok Kalyan Marg -->
<g id="edge52" class="edge">
<title>Udyog Bhawan&#45;&#45;Lok Kalyan Marg</title>
<path fill="none" stroke="#ffff00" stroke-width="2" d="M297.2568,-173.9735C296.227,-159.0422 294.7709,-137.9283 293.7416,-123.0034"/>
<text text-anchor="middle" x="304.5" y="-144.8" font-family="Times,serif" font-size="14.00" fill="#000000">1.6</text>
</g>
<!-- Jor Bagh -->
<g id="node51" class="node">
<title>Jor Bagh</title>
<polygon fill="none" stroke="#000000" points="325,-36 260,-36 260,0 325,0 325,-36"/>
<text text-anchor="middle" x="292.5" y="-14.3" font-family="Times,serif" font-size="14.00" fill="#000000">Jor Bagh</text>
</g>
<!-- Lok Kalyan Marg&#45;&#45;Jor Bagh -->
<g id="edge53" class="edge">
<title>Lok Kalyan Marg&#45;&#45;Jor Bagh</title>
<path fill="none" stroke="#ffff00" stroke-width="2" d="M292.5,-86.9735C292.5,-72.0422 292.5,-50.9283 292.5,-36.0034"/>
<text text-anchor="middle" x="301.5" y="-57.8" font-family="Times,serif" font-size="14.00" fill="#000000">1.2</text>
</g>
</g>
</svg>
