<?xml version="1.0" encoding="UTF-8" standalone="no"?>
<!DOCTYPE svg PUBLIC "-//W3C//DTD SVG 1.1//EN"
 "http://www.w3.org/Graphics/SVG/1.1/DTD/svg11.dtd">
<!-- Generated by graphviz version 2.38.0 (20140413.2041)
 -->
<!-- Title: G Pages: 1 -->
<svg width="479pt" height="1910pt"
 viewBox="0.00 0.00 479.00 1910.00" xmlns="http://www.w3.org/2000/svg" xmlns:xlink="http://www.w3.org/1999/xlink">
<g id="graph0" class="graph" transform="scale(1 1) rotate(0) translate(4 1906)">
<title>G</title>
<polygon fill="white" stroke="none" points="-4,4 -4,-1906 475,-1906 475,4 -4,4"/>
<!-- Rithala -->
<g id="node1" class="node"><title>Rithala</title>
<polygon fill="none" stroke="black" points="147.5,-1902 91.5,-1902 91.5,-1866 147.5,-1866 147.5,-1902"/>
<text text-anchor="middle" x="119.5" y="-1880.3" font-family="Times,serif" font-size="14.00">Rithala</text>
</g>
<!-- Netaji Subhash Place -->
<g id="node2" class="node"><title>Netaji Subhash Place</title>
<polygon fill="none" stroke="black" points="185.5,-1815 53.5,-1815 53.5,-1779 185.5,-1779 185.5,-1815"/>
<text text-anchor="middle" x="119.5" y="-1793.3" font-family="Times,serif" font-size="14.00">Netaji Subhash Place</text>
</g>
<!-- Rithala&#45;&#45;Netaji Subhash Place -->
<g id="edge1" class="edge"><title>Rithala&#45;&#45;Netaji Subhash Place</title>
<path fill="none" stroke="red" stroke-width="5" d="M119.5,-1865.8C119.5,-1851.05 119.5,-1829.92 119.5,-1815.18"/>
<text text-anchor="middle" x="128.5" y="-1836.8" font-family="Times,serif" font-size="14.00">5.2</text>
</g>
<!-- Keshav Puram -->
<g id="node3" class="node"><title>Keshav Puram</title>
<polygon fill="none" stroke="black" points="168,-1728 71,-1728 71,-1692 168,-1692 168,-1728"/>
<text text-anchor="middle" x="119.5" y="-1706.3" font-family="Times,serif" font-size="14.00">Keshav Puram</text>
</g>
<!-- Netaji Subhash Place&#45;&#45;Keshav Puram -->
<g id="edge2" class="edge"><title>Netaji Subhash Place&#45;&#45;Keshav Puram</title>
<path fill="none" stroke="red" stroke-width="5" d="M119.5,-1778.8C119.5,-1764.05 119.5,-1742.92 119.5,-1728.18"/>
<text text-anchor="middle" x="128.5" y="-1749.8" font-family="Times,serif" font-size="14.00">1.2</text>
</g>
<!-- Kanhaiya Nagar -->
<g id="node4" class="node"><title>Kanhaiya Nagar</title>
<polygon fill="none" stroke="black" points="172,-1641 67,-1641 67,-1605 172,-1605 172,-1641"/>
<text text-anchor="middle" x="119.5" y="-1619.3" font-family="Times,serif" font-size="14.00">Kanhaiya Nagar</text>
</g>
<!-- Keshav Puram&#45;&#45;Kanhaiya Nagar -->
<g id="edge3" class="edge"><title>Keshav Puram&#45;&#45;Kanhaiya Nagar</title>
<path fill="none" stroke="red" stroke-width="5" d="M119.5,-1691.8C119.5,-1677.05 119.5,-1655.92 119.5,-1641.18"/>
<text text-anchor="middle" x="128.5" y="-1662.8" font-family="Times,serif" font-size="14.00">0.8</text>
</g>
<!-- Inderlok -->
<g id="node5" class="node"><title>Inderlok</title>
<polygon fill="none" stroke="black" points="162.5,-1554 100.5,-1554 100.5,-1518 162.5,-1518 162.5,-1554"/>
<text text-anchor="middle" x="131.5" y="-1532.3" font-family="Times,serif" font-size="14.00">Inderlok</text>
</g>
<!-- Kanhaiya Nagar&#45;&#45;Inderlok -->
<g id="edge4" class="edge"><title>Kanhaiya Nagar&#45;&#45;Inderlok</title>
<path fill="none" stroke="red" stroke-width="5" d="M121.928,-1604.8C124.01,-1590.05 126.994,-1568.92 129.075,-1554.18"/>
<text text-anchor="middle" x="135.5" y="-1575.8" font-family="Times,serif" font-size="14.00">1.2</text>
</g>
<!-- Shastri Nagar -->
<g id="node6" class="node"><title>Shastri Nagar</title>
<polygon fill="none" stroke="black" points="177,-1467 86,-1467 86,-1431 177,-1431 177,-1467"/>
<text text-anchor="middle" x="131.5" y="-1445.3" font-family="Times,serif" font-size="14.00">Shastri Nagar</text>
</g>
<!-- Inderlok&#45;&#45;Shastri Nagar -->
<g id="edge5" class="edge"><title>Inderlok&#45;&#45;Shastri Nagar</title>
<path fill="none" stroke="red" stroke-width="5" d="M131.5,-1517.8C131.5,-1503.05 131.5,-1481.92 131.5,-1467.18"/>
<text text-anchor="middle" x="140.5" y="-1488.8" font-family="Times,serif" font-size="14.00">1.2</text>
</g>
<!-- Pratap Nagar -->
<g id="node7" class="node"><title>Pratap Nagar</title>
<polygon fill="none" stroke="black" points="175.5,-1380 87.5,-1380 87.5,-1344 175.5,-1344 175.5,-1380"/>
<text text-anchor="middle" x="131.5" y="-1358.3" font-family="Times,serif" font-size="14.00">Pratap Nagar</text>
</g>
<!-- Shastri Nagar&#45;&#45;Pratap Nagar -->
<g id="edge6" class="edge"><title>Shastri Nagar&#45;&#45;Pratap Nagar</title>
<path fill="none" stroke="red" stroke-width="5" d="M131.5,-1430.8C131.5,-1416.05 131.5,-1394.92 131.5,-1380.18"/>
<text text-anchor="middle" x="140.5" y="-1401.8" font-family="Times,serif" font-size="14.00">1.7</text>
</g>
<!-- Pulbangash -->
<g id="node8" class="node"><title>Pulbangash</title>
<polygon fill="none" stroke="black" points="174,-1272 95,-1272 95,-1236 174,-1236 174,-1272"/>
<text text-anchor="middle" x="134.5" y="-1250.3" font-family="Times,serif" font-size="14.00">Pulbangash</text>
</g>
<!-- Pratap Nagar&#45;&#45;Pulbangash -->
<g id="edge7" class="edge"><title>Pratap Nagar&#45;&#45;Pulbangash</title>
<path fill="none" stroke="red" stroke-width="5" d="M131.982,-1343.97C132.539,-1324.31 133.449,-1292.13 134.009,-1272.34"/>
<text text-anchor="middle" x="142.5" y="-1304.3" font-family="Times,serif" font-size="14.00">0.8</text>
</g>
<!-- Tis Hazari -->
<g id="node9" class="node"><title>Tis Hazari</title>
<polygon fill="none" stroke="black" points="173.5,-1164 99.5,-1164 99.5,-1128 173.5,-1128 173.5,-1164"/>
<text text-anchor="middle" x="136.5" y="-1142.3" font-family="Times,serif" font-size="14.00">Tis Hazari</text>
</g>
<!-- Pulbangash&#45;&#45;Tis Hazari -->
<g id="edge8" class="edge"><title>Pulbangash&#45;&#45;Tis Hazari</title>
<path fill="none" stroke="red" stroke-width="5" d="M134.821,-1235.97C135.192,-1216.31 135.799,-1184.13 136.173,-1164.34"/>
<text text-anchor="middle" x="145.5" y="-1196.3" font-family="Times,serif" font-size="14.00">0.9</text>
</g>
<!-- Kashmere Gate -->
<g id="node10" class="node"><title>Kashmere Gate</title>
<polygon fill="none" stroke="black" points="187,-1056 86,-1056 86,-1020 187,-1020 187,-1056"/>
<text text-anchor="middle" x="136.5" y="-1034.3" font-family="Times,serif" font-size="14.00">Kashmere Gate</text>
</g>
<!-- Tis Hazari&#45;&#45;Kashmere Gate -->
<g id="edge9" class="edge"><title>Tis Hazari&#45;&#45;Kashmere Gate</title>
<path fill="none" stroke="red" stroke-width="5" d="M136.5,-1127.97C136.5,-1108.31 136.5,-1076.13 136.5,-1056.34"/>
<text text-anchor="middle" x="145.5" y="-1088.3" font-family="Times,serif" font-size="14.00">1.1</text>
</g>
<!-- Shastri Park -->
<g id="node11" class="node"><title>Shastri Park</title>
<polygon fill="none" stroke="black" points="83,-948 0,-948 0,-912 83,-912 83,-948"/>
<text text-anchor="middle" x="41.5" y="-926.3" font-family="Times,serif" font-size="14.00">Shastri Park</text>
</g>
<!-- Kashmere Gate&#45;&#45;Shastri Park -->
<g id="edge10" class="edge"><title>Kashmere Gate&#45;&#45;Shastri Park</title>
<path fill="none" stroke="red" stroke-width="5" d="M121.237,-1019.97C103.613,-1000.31 74.781,-968.135 57.0411,-948.341"/>
<text text-anchor="middle" x="112.5" y="-980.3" font-family="Times,serif" font-size="14.00">2.2</text>
</g>
<!-- Lal Qila -->
<g id="node33" class="node"><title>Lal Qila</title>
<polygon fill="none" stroke="black" points="167.5,-948 105.5,-948 105.5,-912 167.5,-912 167.5,-948"/>
<text text-anchor="middle" x="136.5" y="-926.3" font-family="Times,serif" font-size="14.00">Lal Qila</text>
</g>
<!-- Kashmere Gate&#45;&#45;Lal Qila -->
<g id="edge32" class="edge"><title>Kashmere Gate&#45;&#45;Lal Qila</title>
<path fill="none" stroke="violet" stroke-width="5" d="M136.5,-1019.97C136.5,-1000.31 136.5,-968.135 136.5,-948.341"/>
<text text-anchor="middle" x="145.5" y="-980.3" font-family="Times,serif" font-size="14.00">1.5</text>
</g>
<!-- Chandni Chowk -->
<g id="node45" class="node"><title>Chandni Chowk</title>
<polygon fill="none" stroke="black" points="294,-948 189,-948 189,-912 294,-912 294,-948"/>
<text text-anchor="middle" x="241.5" y="-926.3" font-family="Times,serif" font-size="14.00">Chandni Chowk</text>
</g>
<!-- Kashmere Gate&#45;&#45;Chandni Chowk -->
<g id="edge45" class="edge"><title>Kashmere Gate&#45;&#45;Chandni Chowk</title>
<path fill="none" stroke="yellow" stroke-width="5" d="M153.37,-1019.97C172.848,-1000.31 204.716,-968.135 224.323,-948.341"/>
<text text-anchor="middle" x="214.5" y="-980.3" font-family="Times,serif" font-size="14.00">1.1</text>
</g>
<!-- Seelampur -->
<g id="node12" class="node"><title>Seelampur</title>
<polygon fill="none" stroke="black" points="75,-861 7.10543e-15,-861 7.10543e-15,-825 75,-825 75,-861"/>
<text text-anchor="middle" x="37.5" y="-839.3" font-family="Times,serif" font-size="14.00">Seelampur</text>
</g>
<!-- Shastri Park&#45;&#45;Seelampur -->
<g id="edge11" class="edge"><title>Shastri Park&#45;&#45;Seelampur</title>
<path fill="none" stroke="red" stroke-width="5" d="M40.6905,-911.799C39.9966,-897.052 39.0019,-875.915 38.3083,-861.175"/>
<text text-anchor="middle" x="49.5" y="-882.8" font-family="Times,serif" font-size="14.00">1.6</text>
</g>
<!-- Welcome -->
<g id="node13" class="node"><title>Welcome</title>
<polygon fill="none" stroke="black" points="72.5,-774 2.5,-774 2.5,-738 72.5,-738 72.5,-774"/>
<text text-anchor="middle" x="37.5" y="-752.3" font-family="Times,serif" font-size="14.00">Welcome</text>
</g>
<!-- Seelampur&#45;&#45;Welcome -->
<g id="edge12" class="edge"><title>Seelampur&#45;&#45;Welcome</title>
<path fill="none" stroke="red" stroke-width="5" d="M37.5,-824.799C37.5,-810.052 37.5,-788.915 37.5,-774.175"/>
<text text-anchor="middle" x="46.5" y="-795.8" font-family="Times,serif" font-size="14.00">1.1</text>
</g>
<!-- Rajouri Garden -->
<g id="node14" class="node"><title>Rajouri Garden</title>
<polygon fill="none" stroke="black" points="290,-1728 189,-1728 189,-1692 290,-1692 290,-1728"/>
<text text-anchor="middle" x="239.5" y="-1706.3" font-family="Times,serif" font-size="14.00">Rajouri Garden</text>
</g>
<!-- Ramesh Nagar -->
<g id="node15" class="node"><title>Ramesh Nagar</title>
<polygon fill="none" stroke="black" points="288.5,-1641 190.5,-1641 190.5,-1605 288.5,-1605 288.5,-1641"/>
<text text-anchor="middle" x="239.5" y="-1619.3" font-family="Times,serif" font-size="14.00">Ramesh Nagar</text>
</g>
<!-- Rajouri Garden&#45;&#45;Ramesh Nagar -->
<g id="edge13" class="edge"><title>Rajouri Garden&#45;&#45;Ramesh Nagar</title>
<path fill="none" stroke="blue" stroke-width="5" d="M239.5,-1691.8C239.5,-1677.05 239.5,-1655.92 239.5,-1641.18"/>
<text text-anchor="middle" x="243" y="-1662.8" font-family="Times,serif" font-size="14.00">1</text>
</g>
<!-- Moti Nagar -->
<g id="node16" class="node"><title>Moti Nagar</title>
<polygon fill="none" stroke="black" points="263.5,-1554 183.5,-1554 183.5,-1518 263.5,-1518 263.5,-1554"/>
<text text-anchor="middle" x="223.5" y="-1532.3" font-family="Times,serif" font-size="14.00">Moti Nagar</text>
</g>
<!-- Ramesh Nagar&#45;&#45;Moti Nagar -->
<g id="edge14" class="edge"><title>Ramesh Nagar&#45;&#45;Moti Nagar</title>
<path fill="none" stroke="blue" stroke-width="5" d="M236.262,-1604.8C233.486,-1590.05 229.508,-1568.92 226.733,-1554.18"/>
<text text-anchor="middle" x="241.5" y="-1575.8" font-family="Times,serif" font-size="14.00">1.2</text>
</g>
<!-- Kirti Nagar -->
<g id="node17" class="node"><title>Kirti Nagar</title>
<polygon fill="none" stroke="black" points="366,-1467 287,-1467 287,-1431 366,-1431 366,-1467"/>
<text text-anchor="middle" x="326.5" y="-1445.3" font-family="Times,serif" font-size="14.00">Kirti Nagar</text>
</g>
<!-- Moti Nagar&#45;&#45;Kirti Nagar -->
<g id="edge15" class="edge"><title>Moti Nagar&#45;&#45;Kirti Nagar</title>
<path fill="none" stroke="blue" stroke-width="5" d="M244.344,-1517.8C262.214,-1503.05 287.826,-1481.92 305.687,-1467.18"/>
<text text-anchor="middle" x="285" y="-1488.8" font-family="Times,serif" font-size="14.00">1</text>
</g>
<!-- Shadipur -->
<g id="node18" class="node"><title>Shadipur</title>
<polygon fill="none" stroke="black" points="359,-1326 294,-1326 294,-1290 359,-1290 359,-1326"/>
<text text-anchor="middle" x="326.5" y="-1304.3" font-family="Times,serif" font-size="14.00">Shadipur</text>
</g>
<!-- Kirti Nagar&#45;&#45;Shadipur -->
<g id="edge16" class="edge"><title>Kirti Nagar&#45;&#45;Shadipur</title>
<path fill="none" stroke="blue" stroke-width="5" d="M326.5,-1430.96C326.5,-1404.28 326.5,-1352.95 326.5,-1326.18"/>
<text text-anchor="middle" x="335.5" y="-1401.8" font-family="Times,serif" font-size="14.00">0.7</text>
</g>
<!-- Patel Nagar -->
<g id="node19" class="node"><title>Patel Nagar</title>
<polygon fill="none" stroke="black" points="366.5,-1218 286.5,-1218 286.5,-1182 366.5,-1182 366.5,-1218"/>
<text text-anchor="middle" x="326.5" y="-1196.3" font-family="Times,serif" font-size="14.00">Patel Nagar</text>
</g>
<!-- Shadipur&#45;&#45;Patel Nagar -->
<g id="edge17" class="edge"><title>Shadipur&#45;&#45;Patel Nagar</title>
<path fill="none" stroke="blue" stroke-width="5" d="M326.5,-1289.97C326.5,-1270.31 326.5,-1238.13 326.5,-1218.34"/>
<text text-anchor="middle" x="335.5" y="-1250.3" font-family="Times,serif" font-size="14.00">1.3</text>
</g>
<!-- Rajender Place -->
<g id="node20" class="node"><title>Rajender Place</title>
<polygon fill="none" stroke="black" points="375.5,-1110 277.5,-1110 277.5,-1074 375.5,-1074 375.5,-1110"/>
<text text-anchor="middle" x="326.5" y="-1088.3" font-family="Times,serif" font-size="14.00">Rajender Place</text>
</g>
<!-- Patel Nagar&#45;&#45;Rajender Place -->
<g id="edge18" class="edge"><title>Patel Nagar&#45;&#45;Rajender Place</title>
<path fill="none" stroke="blue" stroke-width="5" d="M326.5,-1181.97C326.5,-1162.31 326.5,-1130.13 326.5,-1110.34"/>
<text text-anchor="middle" x="335.5" y="-1142.3" font-family="Times,serif" font-size="14.00">0.9</text>
</g>
<!-- Karol Bagh -->
<g id="node21" class="node"><title>Karol Bagh</title>
<polygon fill="none" stroke="black" points="366.5,-1002 286.5,-1002 286.5,-966 366.5,-966 366.5,-1002"/>
<text text-anchor="middle" x="326.5" y="-980.3" font-family="Times,serif" font-size="14.00">Karol Bagh</text>
</g>
<!-- Rajender Place&#45;&#45;Karol Bagh -->
<g id="edge19" class="edge"><title>Rajender Place&#45;&#45;Karol Bagh</title>
<path fill="none" stroke="blue" stroke-width="5" d="M326.5,-1073.97C326.5,-1054.31 326.5,-1022.13 326.5,-1002.34"/>
<text text-anchor="middle" x="330" y="-1034.3" font-family="Times,serif" font-size="14.00">1</text>
</g>
<!-- Rajiv Chowk -->
<g id="node22" class="node"><title>Rajiv Chowk</title>
<polygon fill="none" stroke="black" points="342,-687 253,-687 253,-651 342,-651 342,-687"/>
<text text-anchor="middle" x="297.5" y="-665.3" font-family="Times,serif" font-size="14.00">Rajiv Chowk</text>
</g>
<!-- Karol Bagh&#45;&#45;Rajiv Chowk -->
<g id="edge20" class="edge"><title>Karol Bagh&#45;&#45;Rajiv Chowk</title>
<path fill="none" stroke="blue" stroke-width="5" d="M326.5,-965.748C326.5,-946.622 326.5,-914.857 326.5,-887.5 326.5,-887.5 326.5,-887.5 326.5,-755 326.5,-730.364 315.453,-703.76 306.996,-687.001"/>
<text text-anchor="middle" x="335.5" y="-839.3" font-family="Times,serif" font-size="14.00">3.4</text>
</g>
<!-- Barakhamba Road -->
<g id="node23" class="node"><title>Barakhamba Road</title>
<polygon fill="none" stroke="black" points="290.5,-579 172.5,-579 172.5,-543 290.5,-543 290.5,-579"/>
<text text-anchor="middle" x="231.5" y="-557.3" font-family="Times,serif" font-size="14.00">Barakhamba Road</text>
</g>
<!-- Rajiv Chowk&#45;&#45;Barakhamba Road -->
<g id="edge21" class="edge"><title>Rajiv Chowk&#45;&#45;Barakhamba Road</title>
<path fill="none" stroke="blue" stroke-width="5" d="M286.896,-650.969C274.653,-631.306 254.622,-599.135 242.297,-579.341"/>
<text text-anchor="middle" x="283.5" y="-611.3" font-family="Times,serif" font-size="14.00">0.7</text>
</g>
<!-- Patel Chowk -->
<g id="node48" class="node"><title>Patel Chowk</title>
<polygon fill="none" stroke="black" points="361.5,-525 275.5,-525 275.5,-489 361.5,-489 361.5,-525"/>
<text text-anchor="middle" x="318.5" y="-503.3" font-family="Times,serif" font-size="14.00">Patel Chowk</text>
</g>
<!-- Rajiv Chowk&#45;&#45;Patel Chowk -->
<g id="edge49" class="edge"><title>Rajiv Chowk&#45;&#45;Patel Chowk</title>
<path fill="none" stroke="yellow" stroke-width="5" d="M299.747,-650.877C303.768,-620.243 312.15,-556.379 316.205,-525.485"/>
<text text-anchor="middle" x="316.5" y="-611.3" font-family="Times,serif" font-size="14.00">1.3</text>
</g>
<!-- Mandi House -->
<g id="node24" class="node"><title>Mandi House</title>
<polygon fill="none" stroke="black" points="251,-471 160,-471 160,-435 251,-435 251,-471"/>
<text text-anchor="middle" x="205.5" y="-449.3" font-family="Times,serif" font-size="14.00">Mandi House</text>
</g>
<!-- Barakhamba Road&#45;&#45;Mandi House -->
<g id="edge22" class="edge"><title>Barakhamba Road&#45;&#45;Mandi House</title>
<path fill="none" stroke="blue" stroke-width="5" d="M227.323,-542.969C222.499,-523.306 214.608,-491.135 209.753,-471.341"/>
<text text-anchor="middle" x="226" y="-503.3" font-family="Times,serif" font-size="14.00">1</text>
</g>
<!-- Pragati Maiden -->
<g id="node25" class="node"><title>Pragati Maiden</title>
<polygon fill="none" stroke="black" points="214,-384 113,-384 113,-348 214,-348 214,-384"/>
<text text-anchor="middle" x="163.5" y="-362.3" font-family="Times,serif" font-size="14.00">Pragati Maiden</text>
</g>
<!-- Mandi House&#45;&#45;Pragati Maiden -->
<g id="edge23" class="edge"><title>Mandi House&#45;&#45;Pragati Maiden</title>
<path fill="none" stroke="blue" stroke-width="5" d="M197.001,-434.799C189.714,-420.052 179.27,-398.915 171.987,-384.175"/>
<text text-anchor="middle" x="196.5" y="-405.8" font-family="Times,serif" font-size="14.00">0.8</text>
</g>
<!-- Janptah -->
<g id="node37" class="node"><title>Janptah</title>
<polygon fill="none" stroke="black" points="290.5,-384 232.5,-384 232.5,-348 290.5,-348 290.5,-384"/>
<text text-anchor="middle" x="261.5" y="-362.3" font-family="Times,serif" font-size="14.00">Janptah</text>
</g>
<!-- Mandi House&#45;&#45;Janptah -->
<g id="edge37" class="edge"><title>Mandi House&#45;&#45;Janptah</title>
<path fill="none" stroke="violet" stroke-width="5" d="M216.832,-434.799C226.548,-420.052 240.474,-398.915 250.184,-384.175"/>
<text text-anchor="middle" x="246.5" y="-405.8" font-family="Times,serif" font-size="14.00">1.4</text>
</g>
<!-- Inderprastha -->
<g id="node26" class="node"><title>Inderprastha</title>
<polygon fill="none" stroke="black" points="205.5,-297 121.5,-297 121.5,-261 205.5,-261 205.5,-297"/>
<text text-anchor="middle" x="163.5" y="-275.3" font-family="Times,serif" font-size="14.00">Inderprastha</text>
</g>
<!-- Pragati Maiden&#45;&#45;Inderprastha -->
<g id="edge24" class="edge"><title>Pragati Maiden&#45;&#45;Inderprastha</title>
<path fill="none" stroke="blue" stroke-width="5" d="M163.5,-347.799C163.5,-333.052 163.5,-311.915 163.5,-297.175"/>
<text text-anchor="middle" x="172.5" y="-318.8" font-family="Times,serif" font-size="14.00">0.8</text>
</g>
<!-- Yamuna Bank -->
<g id="node27" class="node"><title>Yamuna Bank</title>
<polygon fill="none" stroke="black" points="211,-210 116,-210 116,-174 211,-174 211,-210"/>
<text text-anchor="middle" x="163.5" y="-188.3" font-family="Times,serif" font-size="14.00">Yamuna Bank</text>
</g>
<!-- Inderprastha&#45;&#45;Yamuna Bank -->
<g id="edge25" class="edge"><title>Inderprastha&#45;&#45;Yamuna Bank</title>
<path fill="none" stroke="blue" stroke-width="5" d="M163.5,-260.799C163.5,-246.052 163.5,-224.915 163.5,-210.175"/>
<text text-anchor="middle" x="172.5" y="-231.8" font-family="Times,serif" font-size="14.00">1.8</text>
</g>
<!-- Madipur -->
<g id="node28" class="node"><title>Madipur</title>
<polygon fill="none" stroke="black" points="387.5,-1902 323.5,-1902 323.5,-1866 387.5,-1866 387.5,-1902"/>
<text text-anchor="middle" x="355.5" y="-1880.3" font-family="Times,serif" font-size="14.00">Madipur</text>
</g>
<!-- Shivaji Park -->
<g id="node29" class="node"><title>Shivaji Park</title>
<polygon fill="none" stroke="black" points="397,-1815 314,-1815 314,-1779 397,-1779 397,-1815"/>
<text text-anchor="middle" x="355.5" y="-1793.3" font-family="Times,serif" font-size="14.00">Shivaji Park</text>
</g>
<!-- Madipur&#45;&#45;Shivaji Park -->
<g id="edge26" class="edge"><title>Madipur&#45;&#45;Shivaji Park</title>
<path fill="none" stroke="green" stroke-width="5" d="M355.5,-1865.8C355.5,-1851.05 355.5,-1829.92 355.5,-1815.18"/>
<text text-anchor="middle" x="364.5" y="-1836.8" font-family="Times,serif" font-size="14.00">1.1</text>
</g>
<!-- Punjabi Bagh -->
<g id="node30" class="node"><title>Punjabi Bagh</title>
<polygon fill="none" stroke="black" points="400.5,-1728 310.5,-1728 310.5,-1692 400.5,-1692 400.5,-1728"/>
<text text-anchor="middle" x="355.5" y="-1706.3" font-family="Times,serif" font-size="14.00">Punjabi Bagh</text>
</g>
<!-- Shivaji Park&#45;&#45;Punjabi Bagh -->
<g id="edge27" class="edge"><title>Shivaji Park&#45;&#45;Punjabi Bagh</title>
<path fill="none" stroke="green" stroke-width="5" d="M355.5,-1778.8C355.5,-1764.05 355.5,-1742.92 355.5,-1728.18"/>
<text text-anchor="middle" x="364.5" y="-1749.8" font-family="Times,serif" font-size="14.00">1.6</text>
</g>
<!-- Ashok Park -->
<g id="node31" class="node"><title>Ashok Park</title>
<polygon fill="none" stroke="black" points="395.5,-1641 315.5,-1641 315.5,-1605 395.5,-1605 395.5,-1641"/>
<text text-anchor="middle" x="355.5" y="-1619.3" font-family="Times,serif" font-size="14.00">Ashok Park</text>
</g>
<!-- Punjabi Bagh&#45;&#45;Ashok Park -->
<g id="edge28" class="edge"><title>Punjabi Bagh&#45;&#45;Ashok Park</title>
<path fill="none" stroke="green" stroke-width="5" d="M355.5,-1691.8C355.5,-1677.05 355.5,-1655.92 355.5,-1641.18"/>
<text text-anchor="middle" x="364.5" y="-1662.8" font-family="Times,serif" font-size="14.00">0.9</text>
</g>
<!-- Ashok Park&#45;&#45;Inderlok -->
<g id="edge29" class="edge"><title>Ashok Park&#45;&#45;Inderlok</title>
<path fill="none" stroke="green" stroke-width="5" d="M325.825,-1604.96C306.123,-1594.24 279.397,-1580.82 254.5,-1572 220.148,-1559.83 209.329,-1564.73 174.5,-1554 170.664,-1552.82 166.686,-1551.45 162.769,-1550.01"/>
<text text-anchor="middle" x="298.5" y="-1575.8" font-family="Times,serif" font-size="14.00">1.4</text>
</g>
<!-- Sat Guru Ram Singh Marg -->
<g id="node32" class="node"><title>Sat Guru Ram Singh Marg</title>
<polygon fill="none" stroke="black" points="445.5,-1554 281.5,-1554 281.5,-1518 445.5,-1518 445.5,-1554"/>
<text text-anchor="middle" x="363.5" y="-1532.3" font-family="Times,serif" font-size="14.00">Sat Guru Ram Singh Marg</text>
</g>
<!-- Ashok Park&#45;&#45;Sat Guru Ram Singh Marg -->
<g id="edge30" class="edge"><title>Ashok Park&#45;&#45;Sat Guru Ram Singh Marg</title>
<path fill="none" stroke="green" stroke-width="5" d="M357.119,-1604.8C358.507,-1590.05 360.496,-1568.92 361.883,-1554.18"/>
<text text-anchor="middle" x="369.5" y="-1575.8" font-family="Times,serif" font-size="14.00">1.1</text>
</g>
<!-- Sat Guru Ram Singh Marg&#45;&#45;Kirti Nagar -->
<g id="edge31" class="edge"><title>Sat Guru Ram Singh Marg&#45;&#45;Kirti Nagar</title>
<path fill="none" stroke="green" stroke-width="5" d="M356.012,-1517.8C349.593,-1503.05 340.392,-1481.92 333.976,-1467.18"/>
<text text-anchor="middle" x="351" y="-1488.8" font-family="Times,serif" font-size="14.00">1</text>
</g>
<!-- Jama Masjid -->
<g id="node34" class="node"><title>Jama Masjid</title>
<polygon fill="none" stroke="black" points="180,-861 93,-861 93,-825 180,-825 180,-861"/>
<text text-anchor="middle" x="136.5" y="-839.3" font-family="Times,serif" font-size="14.00">Jama Masjid</text>
</g>
<!-- Lal Qila&#45;&#45;Jama Masjid -->
<g id="edge33" class="edge"><title>Lal Qila&#45;&#45;Jama Masjid</title>
<path fill="none" stroke="violet" stroke-width="5" d="M136.5,-911.799C136.5,-897.052 136.5,-875.915 136.5,-861.175"/>
<text text-anchor="middle" x="145.5" y="-882.8" font-family="Times,serif" font-size="14.00">0.8</text>
</g>
<!-- Delhi Gate -->
<g id="node35" class="node"><title>Delhi Gate</title>
<polygon fill="none" stroke="black" points="174.5,-774 98.5,-774 98.5,-738 174.5,-738 174.5,-774"/>
<text text-anchor="middle" x="136.5" y="-752.3" font-family="Times,serif" font-size="14.00">Delhi Gate</text>
</g>
<!-- Jama Masjid&#45;&#45;Delhi Gate -->
<g id="edge34" class="edge"><title>Jama Masjid&#45;&#45;Delhi Gate</title>
<path fill="none" stroke="violet" stroke-width="5" d="M136.5,-824.799C136.5,-810.052 136.5,-788.915 136.5,-774.175"/>
<text text-anchor="middle" x="145.5" y="-795.8" font-family="Times,serif" font-size="14.00">1.4</text>
</g>
<!-- ITO -->
<g id="node36" class="node"><title>ITO</title>
<polygon fill="none" stroke="black" points="163.5,-633 109.5,-633 109.5,-597 163.5,-597 163.5,-633"/>
<text text-anchor="middle" x="136.5" y="-611.3" font-family="Times,serif" font-size="14.00">ITO</text>
</g>
<!-- Delhi Gate&#45;&#45;ITO -->
<g id="edge35" class="edge"><title>Delhi Gate&#45;&#45;ITO</title>
<path fill="none" stroke="violet" stroke-width="5" d="M136.5,-737.956C136.5,-711.278 136.5,-659.947 136.5,-633.184"/>
<text text-anchor="middle" x="145.5" y="-708.8" font-family="Times,serif" font-size="14.00">1.3</text>
</g>
<!-- ITO&#45;&#45;Mandi House -->
<g id="edge36" class="edge"><title>ITO&#45;&#45;Mandi House</title>
<path fill="none" stroke="violet" stroke-width="5" d="M136.468,-596.828C136.952,-582.108 138.897,-560.562 145.5,-543 155.862,-515.441 176.288,-487.998 190.409,-471.026"/>
<text text-anchor="middle" x="154.5" y="-557.3" font-family="Times,serif" font-size="14.00">0.8</text>
</g>
<!-- Central Secretariat -->
<g id="node38" class="node"><title>Central Secretariat</title>
<polygon fill="none" stroke="black" points="359.5,-297 241.5,-297 241.5,-261 359.5,-261 359.5,-297"/>
<text text-anchor="middle" x="300.5" y="-275.3" font-family="Times,serif" font-size="14.00">Central Secretariat</text>
</g>
<!-- Janptah&#45;&#45;Central Secretariat -->
<g id="edge38" class="edge"><title>Janptah&#45;&#45;Central Secretariat</title>
<path fill="none" stroke="violet" stroke-width="5" d="M269.392,-347.799C276.159,-333.052 285.857,-311.915 292.62,-297.175"/>
<text text-anchor="middle" x="292.5" y="-318.8" font-family="Times,serif" font-size="14.00">1.3</text>
</g>
<!-- Khan Market -->
<g id="node39" class="node"><title>Khan Market</title>
<polygon fill="none" stroke="black" points="452,-210 363,-210 363,-174 452,-174 452,-210"/>
<text text-anchor="middle" x="407.5" y="-188.3" font-family="Times,serif" font-size="14.00">Khan Market</text>
</g>
<!-- Central Secretariat&#45;&#45;Khan Market -->
<g id="edge39" class="edge"><title>Central Secretariat&#45;&#45;Khan Market</title>
<path fill="none" stroke="violet" stroke-width="5" d="M322.153,-260.799C340.717,-246.052 367.324,-224.915 385.879,-210.175"/>
<text text-anchor="middle" x="369.5" y="-231.8" font-family="Times,serif" font-size="14.00">2.1</text>
</g>
<!-- Udyog Bhawan -->
<g id="node49" class="node"><title>Udyog Bhawan</title>
<polygon fill="none" stroke="black" points="335,-210 234,-210 234,-174 335,-174 335,-210"/>
<text text-anchor="middle" x="284.5" y="-188.3" font-family="Times,serif" font-size="14.00">Udyog Bhawan</text>
</g>
<!-- Central Secretariat&#45;&#45;Udyog Bhawan -->
<g id="edge51" class="edge"><title>Central Secretariat&#45;&#45;Udyog Bhawan</title>
<path fill="none" stroke="yellow" stroke-width="5" d="M297.262,-260.799C294.486,-246.052 290.508,-224.915 287.733,-210.175"/>
<text text-anchor="middle" x="302.5" y="-231.8" font-family="Times,serif" font-size="14.00">0.3</text>
</g>
<!-- JL Nehru Stadium -->
<g id="node40" class="node"><title>JL Nehru Stadium</title>
<polygon fill="none" stroke="black" points="471,-123 354,-123 354,-87 471,-87 471,-123"/>
<text text-anchor="middle" x="412.5" y="-101.3" font-family="Times,serif" font-size="14.00">JL Nehru Stadium</text>
</g>
<!-- Khan Market&#45;&#45;JL Nehru Stadium -->
<g id="edge40" class="edge"><title>Khan Market&#45;&#45;JL Nehru Stadium</title>
<path fill="none" stroke="violet" stroke-width="5" d="M408.512,-173.799C409.379,-159.052 410.623,-137.915 411.49,-123.175"/>
<text text-anchor="middle" x="419.5" y="-144.8" font-family="Times,serif" font-size="14.00">1.4</text>
</g>
<!-- Jangpura -->
<g id="node41" class="node"><title>Jangpura</title>
<polygon fill="none" stroke="black" points="445,-36 380,-36 380,-0 445,-0 445,-36"/>
<text text-anchor="middle" x="412.5" y="-14.3" font-family="Times,serif" font-size="14.00">Jangpura</text>
</g>
<!-- JL Nehru Stadium&#45;&#45;Jangpura -->
<g id="edge41" class="edge"><title>JL Nehru Stadium&#45;&#45;Jangpura</title>
<path fill="none" stroke="violet" stroke-width="5" d="M412.5,-86.799C412.5,-72.0519 412.5,-50.9152 412.5,-36.1754"/>
<text text-anchor="middle" x="421.5" y="-57.8" font-family="Times,serif" font-size="14.00">0.9</text>
</g>
<!-- Vishwavidalaya -->
<g id="node42" class="node"><title>Vishwavidalaya</title>
<polygon fill="none" stroke="black" points="297.5,-1380 193.5,-1380 193.5,-1344 297.5,-1344 297.5,-1380"/>
<text text-anchor="middle" x="245.5" y="-1358.3" font-family="Times,serif" font-size="14.00">Vishwavidalaya</text>
</g>
<!-- Vidhan Sabha -->
<g id="node43" class="node"><title>Vidhan Sabha</title>
<polygon fill="none" stroke="black" points="289,-1272 196,-1272 196,-1236 289,-1236 289,-1272"/>
<text text-anchor="middle" x="242.5" y="-1250.3" font-family="Times,serif" font-size="14.00">Vidhan Sabha</text>
</g>
<!-- Vishwavidalaya&#45;&#45;Vidhan Sabha -->
<g id="edge42" class="edge"><title>Vishwavidalaya&#45;&#45;Vidhan Sabha</title>
<path fill="none" stroke="yellow" stroke-width="5" d="M245.018,-1343.97C244.461,-1324.31 243.551,-1292.13 242.991,-1272.34"/>
<text text-anchor="middle" x="248" y="-1304.3" font-family="Times,serif" font-size="14.00">1</text>
</g>
<!-- Civil Lines -->
<g id="node44" class="node"><title>Civil Lines</title>
<polygon fill="none" stroke="black" points="272,-1164 195,-1164 195,-1128 272,-1128 272,-1164"/>
<text text-anchor="middle" x="233.5" y="-1142.3" font-family="Times,serif" font-size="14.00">Civil Lines</text>
</g>
<!-- Vidhan Sabha&#45;&#45;Civil Lines -->
<g id="edge43" class="edge"><title>Vidhan Sabha&#45;&#45;Civil Lines</title>
<path fill="none" stroke="yellow" stroke-width="5" d="M241.054,-1235.97C239.384,-1216.31 236.653,-1184.13 234.972,-1164.34"/>
<text text-anchor="middle" x="248.5" y="-1196.3" font-family="Times,serif" font-size="14.00">1.3</text>
</g>
<!-- Civil Lines&#45;&#45;Kashmere Gate -->
<g id="edge44" class="edge"><title>Civil Lines&#45;&#45;Kashmere Gate</title>
<path fill="none" stroke="yellow" stroke-width="5" d="M217.915,-1127.97C199.921,-1108.31 170.482,-1076.13 152.368,-1056.34"/>
<text text-anchor="middle" x="208.5" y="-1088.3" font-family="Times,serif" font-size="14.00">1.1</text>
</g>
<!-- Chawri Bazar -->
<g id="node46" class="node"><title>Chawri Bazar</title>
<polygon fill="none" stroke="black" points="290.5,-861 198.5,-861 198.5,-825 290.5,-825 290.5,-861"/>
<text text-anchor="middle" x="244.5" y="-839.3" font-family="Times,serif" font-size="14.00">Chawri Bazar</text>
</g>
<!-- Chandni Chowk&#45;&#45;Chawri Bazar -->
<g id="edge46" class="edge"><title>Chandni Chowk&#45;&#45;Chawri Bazar</title>
<path fill="none" stroke="yellow" stroke-width="5" d="M242.107,-911.799C242.628,-897.052 243.374,-875.915 243.894,-861.175"/>
<text text-anchor="middle" x="247" y="-882.8" font-family="Times,serif" font-size="14.00">1</text>
</g>
<!-- New Delhi -->
<g id="node47" class="node"><title>New Delhi</title>
<polygon fill="none" stroke="black" points="294.5,-774 218.5,-774 218.5,-738 294.5,-738 294.5,-774"/>
<text text-anchor="middle" x="256.5" y="-752.3" font-family="Times,serif" font-size="14.00">New Delhi</text>
</g>
<!-- Chawri Bazar&#45;&#45;New Delhi -->
<g id="edge47" class="edge"><title>Chawri Bazar&#45;&#45;New Delhi</title>
<path fill="none" stroke="yellow" stroke-width="5" d="M246.928,-824.799C249.01,-810.052 251.994,-788.915 254.075,-774.175"/>
<text text-anchor="middle" x="260.5" y="-795.8" font-family="Times,serif" font-size="14.00">0.8</text>
</g>
<!-- New Delhi&#45;&#45;Rajiv Chowk -->
<g id="edge48" class="edge"><title>New Delhi&#45;&#45;Rajiv Chowk</title>
<path fill="none" stroke="yellow" stroke-width="5" d="M264.797,-737.799C271.91,-723.052 282.106,-701.915 289.215,-687.175"/>
<text text-anchor="middle" x="288.5" y="-708.8" font-family="Times,serif" font-size="14.00">1.1</text>
</g>
<!-- Patel Chowk&#45;&#45;Central Secretariat -->
<g id="edge50" class="edge"><title>Patel Chowk&#45;&#45;Central Secretariat</title>
<path fill="none" stroke="yellow" stroke-width="5" d="M317.478,-488.859C315.431,-455.4 310.505,-379.055 304.5,-315 303.952,-309.154 303.252,-302.771 302.592,-297.075"/>
<text text-anchor="middle" x="322.5" y="-405.8" font-family="Times,serif" font-size="14.00">0.9</text>
</g>
<!-- Lok Kalyan Marg -->
<g id="node50" class="node"><title>Lok Kalyan Marg</title>
<polygon fill="none" stroke="black" points="336,-123 221,-123 221,-87 336,-87 336,-123"/>
<text text-anchor="middle" x="278.5" y="-101.3" font-family="Times,serif" font-size="14.00">Lok Kalyan Marg</text>
</g>
<!-- Udyog Bhawan&#45;&#45;Lok Kalyan Marg -->
<g id="edge52" class="edge"><title>Udyog Bhawan&#45;&#45;Lok Kalyan Marg</title>
<path fill="none" stroke="yellow" stroke-width="5" d="M283.286,-173.799C282.245,-159.052 280.753,-137.915 279.712,-123.175"/>
<text text-anchor="middle" x="291.5" y="-144.8" font-family="Times,serif" font-size="14.00">1.6</text>
</g>
<!-- Jor Bagh -->
<g id="node51" class="node"><title>Jor Bagh</title>
<polygon fill="none" stroke="black" points="311,-36 246,-36 246,-0 311,-0 311,-36"/>
<text text-anchor="middle" x="278.5" y="-14.3" font-family="Times,serif" font-size="14.00">Jor Bagh</text>
</g>
<!-- Lok Kalyan Marg&#45;&#45;Jor Bagh -->
<g id="edge53" class="edge"><title>Lok Kalyan Marg&#45;&#45;Jor Bagh</title>
<path fill="none" stroke="yellow" stroke-width="5" d="M278.5,-86.799C278.5,-72.0519 278.5,-50.9152 278.5,-36.1754"/>
<text text-anchor="middle" x="287.5" y="-57.8" font-family="Times,serif" font-size="14.00">1.2</text>
</g>
</g>
</svg>
