<?xml version="1.0" encoding="UTF-8" standalone="no"?>
<!DOCTYPE svg PUBLIC "-//W3C//DTD SVG 1.1//EN"
 "http://www.w3.org/Graphics/SVG/1.1/DTD/svg11.dtd">
<!-- Generated by graphviz version 2.38.0 (20140413.2041)
 -->
<!-- Title: G Pages: 1 -->
<svg width="1036pt" height="825pt"
 viewBox="0.00 0.00 1036.00 825.00" xmlns="http://www.w3.org/2000/svg" xmlns:xlink="http://www.w3.org/1999/xlink">
<g id="graph0" class="graph" transform="scale(1 1) rotate(0) translate(4 798)">
<title>G</title>
<polygon fill="white" stroke="none" points="-4,27 -4,-798 1032,-798 1032,27 -4,27"/>
<text text-anchor="middle" x="514" y="15.2" font-family="Times,serif" font-size="14.00">Stadion IDs</text>
<g id="clust1" class="cluster"><title>cluster1</title>
<polygon fill="none" stroke="black" points="720.238,-432.141 720.238,-777.141 1004.24,-777.141 1004.24,-432.141 720.238,-432.141"/>
<text text-anchor="middle" x="862.238" y="-761.941" font-family="Times,serif" font-size="14.00">0&#45;9</text>
</g>
<g id="clust2" class="cluster"><title>cluster2</title>
<polygon fill="none" stroke="black" points="360.238,-467.641 360.238,-793.641 656.238,-793.641 656.238,-467.641 360.238,-467.641"/>
<text text-anchor="middle" x="508.238" y="-778.441" font-family="Times,serif" font-size="14.00">10&#45;19</text>
</g>
<g id="clust3" class="cluster"><title>cluster3</title>
<polygon fill="none" stroke="black" points="360.238,-35.6409 360.238,-393.641 676.238,-393.641 676.238,-35.6409 360.238,-35.6409"/>
<text text-anchor="middle" x="518.238" y="-378.441" font-family="Times,serif" font-size="14.00">20&#45;29</text>
</g>
<g id="clust4" class="cluster"><title>cluster4</title>
<polygon fill="none" stroke="black" points="720.238,0.359112 720.238,-357.641 1028.24,-357.641 1028.24,0.359112 720.238,0.359112"/>
<text text-anchor="middle" x="874.238" y="-342.441" font-family="Times,serif" font-size="14.00">30&#45;39</text>
</g>
<g id="clust5" class="cluster"><title>cluster5</title>
<polygon fill="none" stroke="black" points="-0.261883,-215.641 -0.261883,-567.641 312.738,-567.641 312.738,-215.641 -0.261883,-215.641"/>
<text text-anchor="middle" x="156.238" y="-552.441" font-family="Times,serif" font-size="14.00">40&#45;50</text>
</g>
<!-- node0 -->
<g id="node1" class="node"><title>node0</title>
<polygon fill="none" stroke="black" points="826.476,-440.782 826.476,-486.782 896.476,-486.782 896.476,-440.782 826.476,-440.782"/>
<text text-anchor="middle" x="861.476" y="-471.582" font-family="Times,serif" font-size="14.00">0</text>
<polyline fill="none" stroke="black" points="826.476,-463.782 896.476,-463.782 "/>
<text text-anchor="middle" x="861.476" y="-448.582" font-family="Times,serif" font-size="14.00">Welcome</text>
</g>
<!-- node1 -->
<g id="node2" class="node"><title>node1</title>
<polygon fill="none" stroke="black" points="909.976,-440.782 909.976,-486.782 984.976,-486.782 984.976,-440.782 909.976,-440.782"/>
<text text-anchor="middle" x="947.476" y="-471.582" font-family="Times,serif" font-size="14.00">1</text>
<polyline fill="none" stroke="black" points="909.976,-463.782 984.976,-463.782 "/>
<text text-anchor="middle" x="947.476" y="-448.582" font-family="Times,serif" font-size="14.00">Seelampur</text>
</g>
<!-- node2 -->
<g id="node3" class="node"><title>node2</title>
<polygon fill="none" stroke="black" points="727.976,-475.782 727.976,-521.782 810.976,-521.782 810.976,-475.782 727.976,-475.782"/>
<text text-anchor="middle" x="769.476" y="-506.582" font-family="Times,serif" font-size="14.00">2</text>
<polyline fill="none" stroke="black" points="727.976,-498.782 810.976,-498.782 "/>
<text text-anchor="middle" x="769.476" y="-483.582" font-family="Times,serif" font-size="14.00">Shastri Park</text>
</g>
<!-- node3 -->
<g id="node4" class="node"><title>node3</title>
<polygon fill="none" stroke="black" points="853.976,-601.782 853.976,-647.782 954.976,-647.782 954.976,-601.782 853.976,-601.782"/>
<text text-anchor="middle" x="904.476" y="-632.582" font-family="Times,serif" font-size="14.00">3</text>
<polyline fill="none" stroke="black" points="853.976,-624.782 954.976,-624.782 "/>
<text text-anchor="middle" x="904.476" y="-609.582" font-family="Times,serif" font-size="14.00">Kashmere Gate</text>
</g>
<!-- node4 -->
<g id="node5" class="node"><title>node4</title>
<polygon fill="none" stroke="black" points="826.476,-699.782 826.476,-745.782 900.476,-745.782 900.476,-699.782 826.476,-699.782"/>
<text text-anchor="middle" x="863.476" y="-730.582" font-family="Times,serif" font-size="14.00">4</text>
<polyline fill="none" stroke="black" points="826.476,-722.782 900.476,-722.782 "/>
<text text-anchor="middle" x="863.476" y="-707.582" font-family="Times,serif" font-size="14.00">Tis Hazari</text>
</g>
<!-- node5 -->
<g id="node6" class="node"><title>node5</title>
<polygon fill="none" stroke="black" points="916.976,-664.782 916.976,-710.782 995.976,-710.782 995.976,-664.782 916.976,-664.782"/>
<text text-anchor="middle" x="956.476" y="-695.582" font-family="Times,serif" font-size="14.00">5</text>
<polyline fill="none" stroke="black" points="916.976,-687.782 995.976,-687.782 "/>
<text text-anchor="middle" x="956.476" y="-672.582" font-family="Times,serif" font-size="14.00">Pulbangash</text>
</g>
<!-- node6 -->
<g id="node7" class="node"><title>node6</title>
<polygon fill="none" stroke="black" points="749.476,-636.782 749.476,-682.782 837.476,-682.782 837.476,-636.782 749.476,-636.782"/>
<text text-anchor="middle" x="793.476" y="-667.582" font-family="Times,serif" font-size="14.00">6</text>
<polyline fill="none" stroke="black" points="749.476,-659.782 837.476,-659.782 "/>
<text text-anchor="middle" x="793.476" y="-644.582" font-family="Times,serif" font-size="14.00">Pratap Nagar</text>
</g>
<!-- node7 -->
<g id="node8" class="node"><title>node7</title>
<polygon fill="none" stroke="black" points="881.976,-503.782 881.976,-549.782 972.976,-549.782 972.976,-503.782 881.976,-503.782"/>
<text text-anchor="middle" x="927.476" y="-534.582" font-family="Times,serif" font-size="14.00">7</text>
<polyline fill="none" stroke="black" points="881.976,-526.782 972.976,-526.782 "/>
<text text-anchor="middle" x="927.476" y="-511.582" font-family="Times,serif" font-size="14.00">Shastri Nagar</text>
</g>
<!-- node8 -->
<g id="node9" class="node"><title>node8</title>
<polygon fill="none" stroke="black" points="749.476,-699.782 749.476,-745.782 811.476,-745.782 811.476,-699.782 749.476,-699.782"/>
<text text-anchor="middle" x="780.476" y="-730.582" font-family="Times,serif" font-size="14.00">8</text>
<polyline fill="none" stroke="black" points="749.476,-722.782 811.476,-722.782 "/>
<text text-anchor="middle" x="780.476" y="-707.582" font-family="Times,serif" font-size="14.00">Inderlok</text>
</g>
<!-- node9 -->
<g id="node10" class="node"><title>node9</title>
<polygon fill="none" stroke="black" points="762.976,-538.782 762.976,-584.782 867.976,-584.782 867.976,-538.782 762.976,-538.782"/>
<text text-anchor="middle" x="815.476" y="-569.582" font-family="Times,serif" font-size="14.00">9</text>
<polyline fill="none" stroke="black" points="762.976,-561.782 867.976,-561.782 "/>
<text text-anchor="middle" x="815.476" y="-546.582" font-family="Times,serif" font-size="14.00">Kanhaiya Nagar</text>
</g>
<!-- node10 -->
<g id="node11" class="node"><title>node10</title>
<polygon fill="none" stroke="black" points="391.976,-652.282 391.976,-698.282 488.976,-698.282 488.976,-652.282 391.976,-652.282"/>
<text text-anchor="middle" x="440.476" y="-683.082" font-family="Times,serif" font-size="14.00">10</text>
<polyline fill="none" stroke="black" points="391.976,-675.282 488.976,-675.282 "/>
<text text-anchor="middle" x="440.476" y="-660.082" font-family="Times,serif" font-size="14.00">Keshav Puram</text>
</g>
<!-- node11 -->
<g id="node12" class="node"><title>node11</title>
<polygon fill="none" stroke="black" points="504.476,-620.282 504.476,-666.282 636.476,-666.282 636.476,-620.282 504.476,-620.282"/>
<text text-anchor="middle" x="570.476" y="-651.082" font-family="Times,serif" font-size="14.00">11</text>
<polyline fill="none" stroke="black" points="504.476,-643.282 636.476,-643.282 "/>
<text text-anchor="middle" x="570.476" y="-628.082" font-family="Times,serif" font-size="14.00">Netaji Subhash Place</text>
</g>
<!-- node12 -->
<g id="node13" class="node"><title>node12</title>
<polygon fill="none" stroke="black" points="416.476,-716.282 416.476,-762.282 472.476,-762.282 472.476,-716.282 416.476,-716.282"/>
<text text-anchor="middle" x="444.476" y="-747.082" font-family="Times,serif" font-size="14.00">12</text>
<polyline fill="none" stroke="black" points="416.476,-739.282 472.476,-739.282 "/>
<text text-anchor="middle" x="444.476" y="-724.082" font-family="Times,serif" font-size="14.00">Rithala</text>
</g>
<!-- node13 -->
<g id="node14" class="node"><title>node13</title>
<polygon fill="none" stroke="black" points="488.476,-716.282 488.476,-762.282 552.476,-762.282 552.476,-716.282 488.476,-716.282"/>
<text text-anchor="middle" x="520.476" y="-747.082" font-family="Times,serif" font-size="14.00">13</text>
<polyline fill="none" stroke="black" points="488.476,-739.282 552.476,-739.282 "/>
<text text-anchor="middle" x="520.476" y="-724.082" font-family="Times,serif" font-size="14.00">Madipur</text>
</g>
<!-- node14 -->
<g id="node15" class="node"><title>node14</title>
<polygon fill="none" stroke="black" points="559.976,-556.282 559.976,-602.282 642.976,-602.282 642.976,-556.282 559.976,-556.282"/>
<text text-anchor="middle" x="601.476" y="-587.082" font-family="Times,serif" font-size="14.00">14</text>
<polyline fill="none" stroke="black" points="559.976,-579.282 642.976,-579.282 "/>
<text text-anchor="middle" x="601.476" y="-564.082" font-family="Times,serif" font-size="14.00">Shivaji Park</text>
</g>
<!-- node15 -->
<g id="node16" class="node"><title>node15</title>
<polygon fill="none" stroke="black" points="464.476,-492.282 464.476,-538.282 554.476,-538.282 554.476,-492.282 464.476,-492.282"/>
<text text-anchor="middle" x="509.476" y="-523.082" font-family="Times,serif" font-size="14.00">15</text>
<polyline fill="none" stroke="black" points="464.476,-515.282 554.476,-515.282 "/>
<text text-anchor="middle" x="509.476" y="-500.082" font-family="Times,serif" font-size="14.00">Punjabi Bagh</text>
</g>
<!-- node16 -->
<g id="node17" class="node"><title>node16</title>
<polygon fill="none" stroke="black" points="568.476,-476.282 568.476,-522.282 648.476,-522.282 648.476,-476.282 568.476,-476.282"/>
<text text-anchor="middle" x="608.476" y="-507.082" font-family="Times,serif" font-size="14.00">16</text>
<polyline fill="none" stroke="black" points="568.476,-499.282 648.476,-499.282 "/>
<text text-anchor="middle" x="608.476" y="-484.082" font-family="Times,serif" font-size="14.00">Ashok Park</text>
</g>
<!-- node17 -->
<g id="node18" class="node"><title>node17</title>
<polygon fill="none" stroke="black" points="376.476,-556.282 376.476,-602.282 540.476,-602.282 540.476,-556.282 376.476,-556.282"/>
<text text-anchor="middle" x="458.476" y="-587.082" font-family="Times,serif" font-size="14.00">17</text>
<polyline fill="none" stroke="black" points="376.476,-579.282 540.476,-579.282 "/>
<text text-anchor="middle" x="458.476" y="-564.082" font-family="Times,serif" font-size="14.00">Sat Guru Ram Singh Marg</text>
</g>
<!-- node18 -->
<g id="node19" class="node"><title>node18</title>
<polygon fill="none" stroke="black" points="367.976,-492.282 367.976,-538.282 446.976,-538.282 446.976,-492.282 367.976,-492.282"/>
<text text-anchor="middle" x="407.476" y="-523.082" font-family="Times,serif" font-size="14.00">18</text>
<polyline fill="none" stroke="black" points="367.976,-515.282 446.976,-515.282 "/>
<text text-anchor="middle" x="407.476" y="-500.082" font-family="Times,serif" font-size="14.00">Kirti Nagar</text>
</g>
<!-- node19 -->
<g id="node20" class="node"><title>node19</title>
<polygon fill="none" stroke="black" points="567.976,-684.282 567.976,-730.282 632.976,-730.282 632.976,-684.282 567.976,-684.282"/>
<text text-anchor="middle" x="600.476" y="-715.082" font-family="Times,serif" font-size="14.00">19</text>
<polyline fill="none" stroke="black" points="567.976,-707.282 632.976,-707.282 "/>
<text text-anchor="middle" x="600.476" y="-692.082" font-family="Times,serif" font-size="14.00">Shadipur</text>
</g>
<!-- node20 -->
<g id="node21" class="node"><title>node20</title>
<polygon fill="none" stroke="black" points="368.476,-316.282 368.476,-362.282 448.476,-362.282 448.476,-316.282 368.476,-316.282"/>
<text text-anchor="middle" x="408.476" y="-347.082" font-family="Times,serif" font-size="14.00">20</text>
<polyline fill="none" stroke="black" points="368.476,-339.282 448.476,-339.282 "/>
<text text-anchor="middle" x="408.476" y="-324.082" font-family="Times,serif" font-size="14.00">Patel Nagar</text>
</g>
<!-- node21 -->
<g id="node22" class="node"><title>node21</title>
<polygon fill="none" stroke="black" points="384.476,-252.282 384.476,-298.282 482.476,-298.282 482.476,-252.282 384.476,-252.282"/>
<text text-anchor="middle" x="433.476" y="-283.082" font-family="Times,serif" font-size="14.00">21</text>
<polyline fill="none" stroke="black" points="384.476,-275.282 482.476,-275.282 "/>
<text text-anchor="middle" x="433.476" y="-260.082" font-family="Times,serif" font-size="14.00">Rajender Place</text>
</g>
<!-- node22 -->
<g id="node23" class="node"><title>node22</title>
<polygon fill="none" stroke="black" points="464.476,-316.282 464.476,-362.282 544.476,-362.282 544.476,-316.282 464.476,-316.282"/>
<text text-anchor="middle" x="504.476" y="-347.082" font-family="Times,serif" font-size="14.00">22</text>
<polyline fill="none" stroke="black" points="464.476,-339.282 544.476,-339.282 "/>
<text text-anchor="middle" x="504.476" y="-324.082" font-family="Times,serif" font-size="14.00">Karol Bagh</text>
</g>
<!-- node23 -->
<g id="node24" class="node"><title>node23</title>
<polygon fill="none" stroke="black" points="479.976,-44.2818 479.976,-90.2818 568.976,-90.2818 568.976,-44.2818 479.976,-44.2818"/>
<text text-anchor="middle" x="524.476" y="-75.0818" font-family="Times,serif" font-size="14.00">23</text>
<polyline fill="none" stroke="black" points="479.976,-67.2818 568.976,-67.2818 "/>
<text text-anchor="middle" x="524.476" y="-52.0818" font-family="Times,serif" font-size="14.00">Rajiv Chowk</text>
</g>
<!-- node24 -->
<g id="node25" class="node"><title>node24</title>
<polygon fill="none" stroke="black" points="392.476,-156.282 392.476,-202.282 510.476,-202.282 510.476,-156.282 392.476,-156.282"/>
<text text-anchor="middle" x="451.476" y="-187.082" font-family="Times,serif" font-size="14.00">24</text>
<polyline fill="none" stroke="black" points="392.476,-179.282 510.476,-179.282 "/>
<text text-anchor="middle" x="451.476" y="-164.082" font-family="Times,serif" font-size="14.00">Barakhamba Road</text>
</g>
<!-- node25 -->
<g id="node26" class="node"><title>node25</title>
<polygon fill="none" stroke="black" points="559.976,-284.282 559.976,-330.282 650.976,-330.282 650.976,-284.282 559.976,-284.282"/>
<text text-anchor="middle" x="605.476" y="-315.082" font-family="Times,serif" font-size="14.00">25</text>
<polyline fill="none" stroke="black" points="559.976,-307.282 650.976,-307.282 "/>
<text text-anchor="middle" x="605.476" y="-292.082" font-family="Times,serif" font-size="14.00">Mandi House</text>
</g>
<!-- node26 -->
<g id="node27" class="node"><title>node26</title>
<polygon fill="none" stroke="black" points="495.976,-220.282 495.976,-266.282 596.976,-266.282 596.976,-220.282 495.976,-220.282"/>
<text text-anchor="middle" x="546.476" y="-251.082" font-family="Times,serif" font-size="14.00">26</text>
<polyline fill="none" stroke="black" points="495.976,-243.282 596.976,-243.282 "/>
<text text-anchor="middle" x="546.476" y="-228.082" font-family="Times,serif" font-size="14.00">Pragati Maiden</text>
</g>
<!-- node27 -->
<g id="node28" class="node"><title>node27</title>
<polygon fill="none" stroke="black" points="584.476,-44.2818 584.476,-90.2818 668.476,-90.2818 668.476,-44.2818 584.476,-44.2818"/>
<text text-anchor="middle" x="626.476" y="-75.0818" font-family="Times,serif" font-size="14.00">27</text>
<polyline fill="none" stroke="black" points="584.476,-67.2818 668.476,-67.2818 "/>
<text text-anchor="middle" x="626.476" y="-52.0818" font-family="Times,serif" font-size="14.00">Inderprastha</text>
</g>
<!-- node28 -->
<g id="node29" class="node"><title>node28</title>
<polygon fill="none" stroke="black" points="367.976,-92.2818 367.976,-138.282 462.976,-138.282 462.976,-92.2818 367.976,-92.2818"/>
<text text-anchor="middle" x="415.476" y="-123.082" font-family="Times,serif" font-size="14.00">28</text>
<polyline fill="none" stroke="black" points="367.976,-115.282 462.976,-115.282 "/>
<text text-anchor="middle" x="415.476" y="-100.082" font-family="Times,serif" font-size="14.00">Yamuna Bank</text>
</g>
<!-- node29 -->
<g id="node30" class="node"><title>node29</title>
<polygon fill="none" stroke="black" points="528.476,-108.282 528.476,-154.282 632.476,-154.282 632.476,-108.282 528.476,-108.282"/>
<text text-anchor="middle" x="580.476" y="-139.082" font-family="Times,serif" font-size="14.00">29</text>
<polyline fill="none" stroke="black" points="528.476,-131.282 632.476,-131.282 "/>
<text text-anchor="middle" x="580.476" y="-116.082" font-family="Times,serif" font-size="14.00">Vishwavidalaya</text>
</g>
<!-- node30 -->
<g id="node31" class="node"><title>node30</title>
<polygon fill="none" stroke="black" points="919.976,-240.282 919.976,-286.282 1012.98,-286.282 1012.98,-240.282 919.976,-240.282"/>
<text text-anchor="middle" x="966.476" y="-271.082" font-family="Times,serif" font-size="14.00">30</text>
<polyline fill="none" stroke="black" points="919.976,-263.282 1012.98,-263.282 "/>
<text text-anchor="middle" x="966.476" y="-248.082" font-family="Times,serif" font-size="14.00">Vidhan Sabha</text>
</g>
<!-- node31 -->
<g id="node32" class="node"><title>node31</title>
<polygon fill="none" stroke="black" points="823.976,-280.282 823.976,-326.282 900.976,-326.282 900.976,-280.282 823.976,-280.282"/>
<text text-anchor="middle" x="862.476" y="-311.082" font-family="Times,serif" font-size="14.00">31</text>
<polyline fill="none" stroke="black" points="823.976,-303.282 900.976,-303.282 "/>
<text text-anchor="middle" x="862.476" y="-288.082" font-family="Times,serif" font-size="14.00">Civil Lines</text>
</g>
<!-- node32 -->
<g id="node33" class="node"><title>node32</title>
<polygon fill="none" stroke="black" points="879.976,-72.2818 879.976,-118.282 984.976,-118.282 984.976,-72.2818 879.976,-72.2818"/>
<text text-anchor="middle" x="932.476" y="-103.082" font-family="Times,serif" font-size="14.00">32</text>
<polyline fill="none" stroke="black" points="879.976,-95.2818 984.976,-95.2818 "/>
<text text-anchor="middle" x="932.476" y="-80.0818" font-family="Times,serif" font-size="14.00">Chandni Chowk</text>
</g>
<!-- node33 -->
<g id="node34" class="node"><title>node33</title>
<polygon fill="none" stroke="black" points="728.476,-48.2818 728.476,-94.2818 820.476,-94.2818 820.476,-48.2818 728.476,-48.2818"/>
<text text-anchor="middle" x="774.476" y="-79.0818" font-family="Times,serif" font-size="14.00">33</text>
<polyline fill="none" stroke="black" points="728.476,-71.2818 820.476,-71.2818 "/>
<text text-anchor="middle" x="774.476" y="-56.0818" font-family="Times,serif" font-size="14.00">Chawri Bazar</text>
</g>
<!-- node34 -->
<g id="node35" class="node"><title>node34</title>
<polygon fill="none" stroke="black" points="944.476,-8.28178 944.476,-54.2818 1020.48,-54.2818 1020.48,-8.28178 944.476,-8.28178"/>
<text text-anchor="middle" x="982.476" y="-39.0818" font-family="Times,serif" font-size="14.00">34</text>
<polyline fill="none" stroke="black" points="944.476,-31.2818 1020.48,-31.2818 "/>
<text text-anchor="middle" x="982.476" y="-16.0818" font-family="Times,serif" font-size="14.00">New Delhi</text>
</g>
<!-- node35 -->
<g id="node36" class="node"><title>node35</title>
<polygon fill="none" stroke="black" points="840.476,-8.28178 840.476,-54.2818 926.476,-54.2818 926.476,-8.28178 840.476,-8.28178"/>
<text text-anchor="middle" x="883.476" y="-39.0818" font-family="Times,serif" font-size="14.00">35</text>
<polyline fill="none" stroke="black" points="840.476,-31.2818 926.476,-31.2818 "/>
<text text-anchor="middle" x="883.476" y="-16.0818" font-family="Times,serif" font-size="14.00">Patel Chowk</text>
</g>
<!-- node36 -->
<g id="node37" class="node"><title>node36</title>
<polygon fill="none" stroke="black" points="856.476,-176.282 856.476,-222.282 974.476,-222.282 974.476,-176.282 856.476,-176.282"/>
<text text-anchor="middle" x="915.476" y="-207.082" font-family="Times,serif" font-size="14.00">36</text>
<polyline fill="none" stroke="black" points="856.476,-199.282 974.476,-199.282 "/>
<text text-anchor="middle" x="915.476" y="-184.082" font-family="Times,serif" font-size="14.00">Central Secartarait</text>
</g>
<!-- node37 -->
<g id="node38" class="node"><title>node37</title>
<polygon fill="none" stroke="black" points="735.976,-216.282 735.976,-262.282 836.976,-262.282 836.976,-216.282 735.976,-216.282"/>
<text text-anchor="middle" x="786.476" y="-247.082" font-family="Times,serif" font-size="14.00">37</text>
<polyline fill="none" stroke="black" points="735.976,-239.282 836.976,-239.282 "/>
<text text-anchor="middle" x="786.476" y="-224.082" font-family="Times,serif" font-size="14.00">Udyog Bhawan</text>
</g>
<!-- node38 -->
<g id="node39" class="node"><title>node38</title>
<polygon fill="none" stroke="black" points="751.976,-112.282 751.976,-158.282 866.976,-158.282 866.976,-112.282 751.976,-112.282"/>
<text text-anchor="middle" x="809.476" y="-143.082" font-family="Times,serif" font-size="14.00">38</text>
<polyline fill="none" stroke="black" points="751.976,-135.282 866.976,-135.282 "/>
<text text-anchor="middle" x="809.476" y="-120.082" font-family="Times,serif" font-size="14.00">Lok Kalyan Marg</text>
</g>
<!-- node39 -->
<g id="node40" class="node"><title>node39</title>
<polygon fill="none" stroke="black" points="743.976,-280.282 743.976,-326.282 808.976,-326.282 808.976,-280.282 743.976,-280.282"/>
<text text-anchor="middle" x="776.476" y="-311.082" font-family="Times,serif" font-size="14.00">39</text>
<polyline fill="none" stroke="black" points="743.976,-303.282 808.976,-303.282 "/>
<text text-anchor="middle" x="776.476" y="-288.082" font-family="Times,serif" font-size="14.00">Jor Bagh</text>
</g>
<!-- node40 -->
<g id="node41" class="node"><title>node40</title>
<polygon fill="none" stroke="black" points="77.9762,-490.282 77.9762,-536.282 139.976,-536.282 139.976,-490.282 77.9762,-490.282"/>
<text text-anchor="middle" x="108.976" y="-521.082" font-family="Times,serif" font-size="14.00">40</text>
<polyline fill="none" stroke="black" points="77.9762,-513.282 139.976,-513.282 "/>
<text text-anchor="middle" x="108.976" y="-498.082" font-family="Times,serif" font-size="14.00">Lal Qila</text>
</g>
<!-- node41 -->
<g id="node42" class="node"><title>node41</title>
<polygon fill="none" stroke="black" points="35.4762,-266.282 35.4762,-312.282 122.476,-312.282 122.476,-266.282 35.4762,-266.282"/>
<text text-anchor="middle" x="78.9762" y="-297.082" font-family="Times,serif" font-size="14.00">41</text>
<polyline fill="none" stroke="black" points="35.4762,-289.282 122.476,-289.282 "/>
<text text-anchor="middle" x="78.9762" y="-274.082" font-family="Times,serif" font-size="14.00">Jama Masjid</text>
</g>
<!-- node42 -->
<g id="node43" class="node"><title>node42</title>
<polygon fill="none" stroke="black" points="133.976,-224.282 133.976,-270.282 209.976,-270.282 209.976,-224.282 133.976,-224.282"/>
<text text-anchor="middle" x="171.976" y="-255.082" font-family="Times,serif" font-size="14.00">42</text>
<polyline fill="none" stroke="black" points="133.976,-247.282 209.976,-247.282 "/>
<text text-anchor="middle" x="171.976" y="-232.082" font-family="Times,serif" font-size="14.00">Delhi Gate</text>
</g>
<!-- node43 -->
<g id="node44" class="node"><title>node43</title>
<polygon fill="none" stroke="black" points="7.97623,-490.282 7.97623,-536.282 61.9762,-536.282 61.9762,-490.282 7.97623,-490.282"/>
<text text-anchor="middle" x="34.9762" y="-521.082" font-family="Times,serif" font-size="14.00">43</text>
<polyline fill="none" stroke="black" points="7.97623,-513.282 61.9762,-513.282 "/>
<text text-anchor="middle" x="34.9762" y="-498.082" font-family="Times,serif" font-size="14.00">ITO</text>
</g>
<!-- node44 -->
<g id="node45" class="node"><title>node44</title>
<polygon fill="none" stroke="black" points="154.976,-490.282 154.976,-536.282 212.976,-536.282 212.976,-490.282 154.976,-490.282"/>
<text text-anchor="middle" x="183.976" y="-521.082" font-family="Times,serif" font-size="14.00">44</text>
<polyline fill="none" stroke="black" points="154.976,-513.282 212.976,-513.282 "/>
<text text-anchor="middle" x="183.976" y="-498.082" font-family="Times,serif" font-size="14.00">Janpath</text>
</g>
<!-- node45 -->
<g id="node46" class="node"><title>node45</title>
<polygon fill="none" stroke="black" points="56.4762,-427.282 56.4762,-473.282 145.476,-473.282 145.476,-427.282 56.4762,-427.282"/>
<text text-anchor="middle" x="100.976" y="-458.082" font-family="Times,serif" font-size="14.00">45</text>
<polyline fill="none" stroke="black" points="56.4762,-450.282 145.476,-450.282 "/>
<text text-anchor="middle" x="100.976" y="-435.082" font-family="Times,serif" font-size="14.00">Khan Market</text>
</g>
<!-- node46 -->
<g id="node47" class="node"><title>node46</title>
<polygon fill="none" stroke="black" points="63.4762,-329.282 63.4762,-375.282 180.476,-375.282 180.476,-329.282 63.4762,-329.282"/>
<text text-anchor="middle" x="121.976" y="-360.082" font-family="Times,serif" font-size="14.00">46</text>
<polyline fill="none" stroke="black" points="63.4762,-352.282 180.476,-352.282 "/>
<text text-anchor="middle" x="121.976" y="-337.082" font-family="Times,serif" font-size="14.00">JL Nehru Stadium</text>
</g>
<!-- node47 -->
<g id="node48" class="node"><title>node47</title>
<polygon fill="none" stroke="black" points="224.476,-224.282 224.476,-270.282 289.476,-270.282 289.476,-224.282 224.476,-224.282"/>
<text text-anchor="middle" x="256.976" y="-255.082" font-family="Times,serif" font-size="14.00">47</text>
<polyline fill="none" stroke="black" points="224.476,-247.282 289.476,-247.282 "/>
<text text-anchor="middle" x="256.976" y="-232.082" font-family="Times,serif" font-size="14.00">Jangpura</text>
</g>
<!-- node48 -->
<g id="node49" class="node"><title>node48</title>
<polygon fill="none" stroke="black" points="161.476,-392.282 161.476,-438.282 262.476,-438.282 262.476,-392.282 161.476,-392.282"/>
<text text-anchor="middle" x="211.976" y="-423.082" font-family="Times,serif" font-size="14.00">48</text>
<polyline fill="none" stroke="black" points="161.476,-415.282 262.476,-415.282 "/>
<text text-anchor="middle" x="211.976" y="-400.082" font-family="Times,serif" font-size="14.00">Rajouri Garden</text>
</g>
<!-- node49 -->
<g id="node50" class="node"><title>node49</title>
<polygon fill="none" stroke="black" points="196.976,-287.282 196.976,-333.282 294.976,-333.282 294.976,-287.282 196.976,-287.282"/>
<text text-anchor="middle" x="245.976" y="-318.082" font-family="Times,serif" font-size="14.00">49</text>
<polyline fill="none" stroke="black" points="196.976,-310.282 294.976,-310.282 "/>
<text text-anchor="middle" x="245.976" y="-295.082" font-family="Times,serif" font-size="14.00">Ramesh Nagar</text>
</g>
<!-- node50 -->
<g id="node51" class="node"><title>node50</title>
<polygon fill="none" stroke="black" points="224.976,-455.282 224.976,-501.282 304.976,-501.282 304.976,-455.282 224.976,-455.282"/>
<text text-anchor="middle" x="264.976" y="-486.082" font-family="Times,serif" font-size="14.00">50</text>
<polyline fill="none" stroke="black" points="224.976,-478.282 304.976,-478.282 "/>
<text text-anchor="middle" x="264.976" y="-463.082" font-family="Times,serif" font-size="14.00">Moti Nagar</text>
</g>
</g>
</svg>
